<?xml version="1.0" encoding="utf-8"?>
<!-- Generator: Adobe Illustrator 26.3.1, SVG Export Plug-In . SVG Version: 6.00 Build 0)  -->
<svg version="1.1" id="Layer_1" xmlns="http://www.w3.org/2000/svg" xmlns:xlink="http://www.w3.org/1999/xlink" x="0px" y="0px"
	 viewBox="0 0 933 207.9" style="enable-background:new 0 0 933 207.9;" xml:space="preserve">
<style type="text/css">
	
		.st0{clip-path:url(#SVGID_00000033361032539574588920000012536830659724414086_);fill:url(#SVGID_00000171691179121709694960000001810804553469272200_);}
	.st1{clip-path:url(#SVGID_00000150787673821285544360000015754604359634119607_);}
	.st2{clip-path:url(#SVGID_00000158733391136230954500000003056938426196953244_);}
	.st3{clip-path:url(#SVGID_00000128467259071879294010000006197141645612603299_);}
	
		.st4{clip-path:url(#SVGID_00000032620177138247563000000001863935059066237117_);fill:url(#SVGID_00000057835502992929808310000004783584553819774341_);}
	.st5{clip-path:url(#SVGID_00000176011011124619344510000015142499551436109727_);}
	.st6{clip-path:url(#SVGID_00000054259961262360654690000007563552383449545909_);}
	.st7{clip-path:url(#SVGID_00000052808505842632351050000018440429542590096301_);}
	
		.st8{clip-path:url(#SVGID_00000179645387194667347500000007277137808345895818_);fill:url(#SVGID_00000164486589292894884980000000843646892512079536_);}
	.st9{clip-path:url(#SVGID_00000108283083348444837500000017753852047570843796_);}
	.st10{clip-path:url(#SVGID_00000172401038348972521690000004175867389762563774_);}
	.st11{clip-path:url(#SVGID_00000091699486950962872120000017244963610827262876_);}
	
		.st12{clip-path:url(#SVGID_00000062176904667465265680000012412490767181951114_);fill:url(#SVGID_00000006689420178764005300000002877400934064580519_);}
	.st13{clip-path:url(#SVGID_00000147198999140208494160000013528471039585557894_);}
	.st14{clip-path:url(#SVGID_00000070113274319748680770000003909920310332761216_);}
	.st15{clip-path:url(#SVGID_00000108279531295660418610000002660213216468236160_);}
	
		.st16{clip-path:url(#SVGID_00000027605499789779306570000017052117962619639457_);fill:url(#SVGID_00000122721976173540765090000000236319699821285803_);}
	.st17{clip-path:url(#SVGID_00000146500277382306886360000006054917308947903403_);}
	.st18{clip-path:url(#SVGID_00000078031503326137255330000013489916053863397821_);}
	.st19{clip-path:url(#SVGID_00000172418592955653708450000013727735007317603469_);}
	
		.st20{clip-path:url(#SVGID_00000174565916933047497610000007410440255072347292_);fill:url(#SVGID_00000046318338972506213590000004208889536843813051_);}
	.st21{clip-path:url(#SVGID_00000116943926571277389650000003241002468263237038_);}
	.st22{clip-path:url(#SVGID_00000102539690122924138890000014778829258398512063_);}
	.st23{clip-path:url(#SVGID_00000011027800495976607250000017637870038111994251_);}
	.st24{enable-background:new    ;}
	.st25{fill:#333333;}
</style>
<g>
	<g>
		<g>
			<g>
				<g>
					<g>
						<g>
							<g>
								<defs>
									<path id="SVGID_1_" d="M76.6,61.9c0,24,21.3,33.3,21.3,33.3l46.6,21.3c25.3,10.7,33.3,17.3,33.3,17.3
										c0-42.7-35.9-54.6-35.9-54.6S96.6,56.5,90,53.9c-6.7-2.6-17.4-14.6-17.4-14.6C76.6,44.6,76.6,61.9,76.6,61.9"/>
								</defs>
								<clipPath id="SVGID_00000159433567559042936990000015657313140078825624_">
									<use xlink:href="#SVGID_1_"  style="overflow:visible;"/>
								</clipPath>
								
									<linearGradient id="SVGID_00000062156769871344034270000009541154009665546424_" gradientUnits="userSpaceOnUse" x1="-1636.8448" y1="1553.6847" x2="-1635.6617" y2="1553.6847" gradientTransform="matrix(-31.6255 48.499 48.499 31.6255 -126979.4531 30315.1895)">
									<stop  offset="0" style="stop-color:#D1D2D3"/>
									<stop  offset="0.1053" style="stop-color:#CCCDCF"/>
									<stop  offset="0.2223" style="stop-color:#BFC0C1"/>
									<stop  offset="0.3449" style="stop-color:#A9AAAC"/>
									<stop  offset="0.4705" style="stop-color:#8A8B8E"/>
									<stop  offset="0.5291" style="stop-color:#797A7D"/>
									<stop  offset="0.547" style="stop-color:#828385"/>
									<stop  offset="0.6182" style="stop-color:#9E9FA1"/>
									<stop  offset="0.6944" style="stop-color:#B5B6B7"/>
									<stop  offset="0.7769" style="stop-color:#C5C6C7"/>
									<stop  offset="0.8702" style="stop-color:#CECFD0"/>
									<stop  offset="0.9976" style="stop-color:#D1D2D3"/>
									<stop  offset="1" style="stop-color:#D1D2D3"/>
								</linearGradient>
								
									<polygon style="clip-path:url(#SVGID_00000159433567559042936990000015657313140078825624_);fill:url(#SVGID_00000062156769871344034270000009541154009665546424_);" points="
									221.2,67.4 146.4,182 29.4,105.7 104,-8.9 								"/>
							</g>
						</g>
					</g>
				</g>
			</g>
			<g>
				<g>
					<g>
						<g>
							<g>
								<defs>
									<path id="SVGID_00000110472560547659435650000004922660366587152539_" d="M177,132.7c-0.4-0.2-0.7-0.5-1.1-0.7
										c-0.7-0.5-1.4-1-2.3-1.4c-1.4-1-3-1.8-4.6-2.6c-1.9-1.1-4-2.2-6-3.2c-2-1-4.1-2-6.1-3c-2-1-4.1-1.9-6.1-2.8
										c-1.1-0.5-2-1-3.1-1.3c-0.5-0.2-1.1-0.5-1.6-0.7l-1.6-0.7l0,0c-3.8-1.8-7.8-3.6-11.6-5.3c-1.9-0.8-3.8-1.8-5.9-2.6
										l-2.9-1.3c-1-0.5-1.9-0.8-2.9-1.3c-1.9-0.8-3.8-1.8-5.9-2.6c-1-0.5-1.9-0.8-2.9-1.3l-2.9-1.3c-1-0.5-1.9-0.8-2.9-1.3
										c-1-0.5-1.9-0.8-2.9-1.3l-2.9-1.3c-1-0.5-1.9-0.8-2.9-1.3l0,0c-3.1-1.4-6-3.5-8.6-5.8c-0.6-0.6-1.3-1.2-1.9-1.8
										c-0.6-0.6-1.2-1.3-1.8-1.9c-0.6-0.6-1.1-1.3-1.7-2c-0.6-0.7-1-1.4-1.4-2.2c-1-1.4-1.7-3-2.5-4.6c-0.4-0.8-0.6-1.6-1-2.4
										c-0.4-0.8-0.6-1.7-0.8-2.4c-0.2-0.8-0.5-1.7-0.6-2.5l-0.5-2.5c-0.2-0.8-0.2-1.7-0.2-2.5c0-0.8-0.1-1.7-0.1-2.6l0,0
										c0-1,0-1.9-0.1-2.8c0-0.5,0-1,0-1.4c0-0.5,0-1-0.1-1.4c0-0.5-0.1-1-0.1-1.4c0-0.5-0.1-1-0.1-1.4c0-0.5-0.1-1-0.1-1.4
										s-0.1-1-0.1-1.4s-0.1-1-0.2-1.4c0-0.5-0.1-1-0.2-1.4c-0.1-0.5-0.1-1-0.2-1.4c-0.1-0.5-0.2-1-0.2-1.4L75,43.4
										c-0.1-0.5-0.2-1-0.5-1.3c-0.1-0.4-0.2-0.7-0.5-1.1c0.1,0.1,0.2,0.2,0.4,0.4c0.4,0.4,0.6,0.7,1,1.1l1,1c0.4,0.4,0.7,0.7,1,1
										c0.4,0.4,0.7,0.6,1.1,1c0.7,0.6,1.3,1.3,2.2,1.9c0.4,0.4,0.7,0.6,1.1,1s0.7,0.6,1.1,1c0.7,0.6,1.4,1.2,2.3,1.8
										c1.6,1.1,3.1,2.3,4.9,3l0,0c1.1,0.5,2.2,1,3.2,1.4c1.1,0.5,2.2,1,3.2,1.6s2.2,1.1,3.2,1.6s2.2,1.1,3.2,1.6l3.2,1.6
										c1.1,0.5,2.2,1.1,3.2,1.6c2.2,1.1,4.3,2.2,6.5,3.2c1.1,0.5,2.2,1.1,3.2,1.6c1.1,0.6,2.2,1.1,3.2,1.6
										c2.2,1.1,4.3,2.2,6.5,3.2c4.3,2.2,8.6,4.3,12.9,6.5l0,0c1.3,0.5,2.6,1.1,4,1.7c1.3,0.6,2.6,1.3,3.8,2
										c2.5,1.4,4.9,3.1,7.1,4.9c4.6,3.6,8.5,7.9,11.6,12.8c3.2,4.8,5.5,10.2,7.1,15.7c0.4,1.4,0.7,2.8,1,4.2
										c0.2,1.4,0.5,2.9,0.7,4.3c0.2,1.4,0.2,2.9,0.4,4.3c0.1,0.7,0,1.4,0.1,2.2c0,0.5,0,1.1,0,1.6
										C177.4,133.1,177.2,133,177,132.7 M72.4,39.4c0.1,0.2,0.2,0.4,0.4,0.6c0.2,0.4,0.5,0.8,0.6,1.2c0.2,0.4,0.4,0.8,0.5,1.3
										c0.1,0.5,0.4,0.8,0.4,1.3c0.1,0.5,0.2,1,0.4,1.3l0.2,1.3c0.1,0.5,0.1,1,0.2,1.4c0.1,0.5,0.1,1,0.2,1.4c0,0.5,0.1,1,0.2,1.4
										c0,0.5,0.1,1,0.1,1.4c0,0.5,0.1,1,0.1,1.4c0,0.5,0.1,1,0.1,1.4c0,0.5,0,1,0.1,1.4c0,0.5,0,1,0.1,1.4v1.4
										c0,1,0.1,1.9,0.1,2.8l0,0c0,0.8,0.1,1.8,0.1,2.6c0.1,0.8,0.1,1.8,0.2,2.6c0.1,0.8,0.2,1.7,0.5,2.6c0.1,0.8,0.5,1.7,0.7,2.5
										c0.2,0.8,0.5,1.7,0.8,2.5c0.4,0.8,0.7,1.6,1,2.4c0.8,1.6,1.6,3.1,2.6,4.6c0.5,0.7,1,1.4,1.6,2.2c0.6,0.7,1.1,1.4,1.7,2
										c0.6,0.6,1.2,1.3,1.8,1.9c0.6,0.6,1.3,1.2,1.9,1.8c2.6,2.3,5.5,4.3,8.7,5.9l0,0c1,0.5,1.9,0.8,2.9,1.3
										c1,0.5,1.9,0.8,2.9,1.3s1.9,0.8,2.9,1.3l2.9,1.3c1,0.5,1.9,0.8,2.9,1.3c1,0.5,1.9,0.8,2.9,1.3c1.9,0.8,3.8,1.8,5.9,2.6
										c1,0.5,1.9,0.8,2.9,1.3s1.9,0.8,2.9,1.3c1.9,0.8,3.8,1.8,5.9,2.6l11.6,5.3l0,0c0.5,0.2,1.1,0.5,1.6,0.7
										c0.5,0.2,1.1,0.5,1.6,0.7c1.1,0.5,2,0.8,3.1,1.3c2,1,4.1,1.9,6.1,2.8c2,1,4.1,1.9,6.1,3c2,1,4,2,6,3.1
										c1.6,0.8,3.1,1.8,4.6,2.6c0.7,0.5,1.4,1,2.3,1.4c0.4,0.2,0.7,0.5,1.1,0.7c0.1,0.1,0.4,0.2,0.5,0.4c0.2,0.2,0.7,0.5,1.1,0.8
										l0,0c0-1,0-1.9-0.1-2.8c0-0.7,0-1.4-0.1-2.2c-0.1-1.4-0.1-2.9-0.4-4.3c-0.2-1.4-0.4-2.9-0.7-4.3c-0.2-1.4-0.6-2.9-1-4.3
										c-1.6-5.6-4-11-7.1-15.9c-3.2-4.9-7.2-9.2-11.7-12.9c-2.3-1.8-4.7-3.5-7.2-5c-1.2-0.7-2.5-1.4-3.8-2
										c-1.3-0.6-2.6-1.2-4.1-1.7l0,0c-4.3-2.2-8.6-4.3-12.9-6.5c-2.2-1.1-4.3-2.2-6.5-3.2c-1.1-0.5-2.2-1.1-3.2-1.6
										s-2.2-1.1-3.2-1.6c-2.2-1.1-4.3-2.2-6.5-3.2c-1.1-0.5-2.2-1.1-3.2-1.6c-1.1-0.5-2.2-1.1-3.2-1.6c-1.1-0.5-2.2-1.1-3.2-1.6
										c-1.1-0.5-2.2-1.1-3.2-1.6l-3.2-1.6c-1.1-0.5-2.2-1-3.4-1.4l0,0c-1.7-0.7-3.4-1.8-4.8-2.9c-0.7-0.6-1.4-1.2-2.3-1.8l-1.1-1
										c-0.4-0.4-0.7-0.6-1.1-1c-0.7-0.6-1.4-1.3-2-1.9c-0.4-0.4-0.7-0.6-1-1c-0.4-0.4-0.7-0.7-1-1c-0.2-0.2-0.7-0.7-1-1
										c-0.4-0.4-0.6-0.7-1-1.1c-0.4-0.4-0.6-0.7-1-1.1c-0.4-0.4-0.6-0.7-1-1.1L71,36.8L72.4,39.4z"/>
								</defs>
								<clipPath id="SVGID_00000062905435391000797680000009065666553536142494_">
									<use xlink:href="#SVGID_00000110472560547659435650000004922660366587152539_"  style="overflow:visible;"/>
								</clipPath>
								<g style="clip-path:url(#SVGID_00000062905435391000797680000009065666553536142494_);">
									<g>
										<g>
											<g>
												<g>
													<g>
														<defs>
															
																<rect id="SVGID_00000075163288034767794410000000751594240832584597_" x="70.7" y="36.7" width="107.5" height="97.8"/>
														</defs>
														<clipPath id="SVGID_00000111154292942383370230000004609858251587383443_">
															<use xlink:href="#SVGID_00000075163288034767794410000000751594240832584597_"  style="overflow:visible;"/>
														</clipPath>
														<g style="clip-path:url(#SVGID_00000111154292942383370230000004609858251587383443_);">
															<g>
																<g>
																	<g>
																		<g>
																			<defs>
																				
																					<rect id="SVGID_00000050632463857899123880000004248673284353886608_" x="70.7" y="36.7" width="107.5" height="97.8"/>
																			</defs>
																			<clipPath id="SVGID_00000177474297855667644090000004586365593644513718_">
																				<use xlink:href="#SVGID_00000050632463857899123880000004248673284353886608_"  style="overflow:visible;"/>
																			</clipPath>
																			<g style="clip-path:url(#SVGID_00000177474297855667644090000004586365593644513718_);">
																			</g>
																		</g>
																	</g>
																</g>
															</g>
														</g>
													</g>
												</g>
											</g>
										</g>
									</g>
								</g>
							</g>
						</g>
					</g>
				</g>
			</g>
			<g>
				<g>
					<g>
						<g>
							<g>
								<defs>
									<path id="SVGID_00000045608998597392858720000007003157561370149010_" d="M83.1,29.8c0,13.7,12.7,19.1,12.7,19.1L123.6,61
										c15.1,6.1,19.8,9.8,19.8,9.8c0-24.3-21.4-31.2-21.4-31.2S94.9,26.7,91,25.3c-4-1.6-10.3-8.4-10.3-8.4
										C83.1,20,83.1,29.8,83.1,29.8"/>
								</defs>
								<clipPath id="SVGID_00000172411593284834040930000015777140622821664914_">
									<use xlink:href="#SVGID_00000045608998597392858720000007003157561370149010_"  style="overflow:visible;"/>
								</clipPath>
								
									<linearGradient id="SVGID_00000017495221818147243550000003572342681238087587_" gradientUnits="userSpaceOnUse" x1="-1610.2775" y1="1513.9656" x2="-1609.0935" y2="1513.9656" gradientTransform="matrix(52.9256 0 0 -52.9256 85305.5625 80171.4922)">
									<stop  offset="0" style="stop-color:#D1D2D3"/>
									<stop  offset="0.1053" style="stop-color:#CCCDCF"/>
									<stop  offset="0.2223" style="stop-color:#BFC0C1"/>
									<stop  offset="0.3449" style="stop-color:#A9AAAC"/>
									<stop  offset="0.4705" style="stop-color:#8A8B8E"/>
									<stop  offset="0.5291" style="stop-color:#797A7D"/>
									<stop  offset="0.547" style="stop-color:#828385"/>
									<stop  offset="0.6182" style="stop-color:#9E9FA1"/>
									<stop  offset="0.6944" style="stop-color:#B5B6B7"/>
									<stop  offset="0.7769" style="stop-color:#C5C6C7"/>
									<stop  offset="0.8702" style="stop-color:#CECFD0"/>
									<stop  offset="0.9976" style="stop-color:#D1D2D3"/>
									<stop  offset="1" style="stop-color:#D1D2D3"/>
								</linearGradient>
								
									<rect x="80.7" y="17" style="clip-path:url(#SVGID_00000172411593284834040930000015777140622821664914_);fill:url(#SVGID_00000017495221818147243550000003572342681238087587_);" width="62.7" height="53.9"/>
							</g>
						</g>
					</g>
				</g>
			</g>
			<g>
				<g>
					<g>
						<g>
							<g>
								<defs>
									<path id="SVGID_00000059988088406401179160000008140337414026414267_" d="M142.1,69.7c-0.5-0.2-0.8-0.6-1.3-0.8
										c-0.8-0.6-1.8-1.1-2.8-1.6c-1.2-0.6-2.4-1.2-3.6-1.8c-1.2-0.6-2.4-1.2-3.6-1.7c-1.2-0.6-2.4-1.1-3.7-1.6
										c-0.6-0.2-1.2-0.5-1.8-0.7c-0.4-0.1-0.6-0.2-1-0.4c-0.4-0.1-0.6-0.2-1-0.4l0,0l-6.9-3c-1.2-0.5-2.3-1-3.5-1.6
										c-0.6-0.2-1.2-0.5-1.7-0.7c-0.6-0.2-1.2-0.5-1.7-0.7c-1.2-0.5-2.3-1-3.5-1.6c-0.6-0.2-1.2-0.5-1.7-0.7
										c-0.6-0.2-1.2-0.5-1.7-0.7c-0.6-0.2-1.2-0.5-1.7-0.7c-0.6-0.2-1.2-0.5-1.7-0.7c-0.6-0.2-1.2-0.5-1.7-0.7
										c-0.6-0.2-1.2-0.5-1.7-0.7l0,0c-1.8-0.8-3.5-1.9-5-3.2c-0.7-0.6-1.4-1.3-2.2-2c-0.4-0.4-0.6-0.7-1-1.1
										c-0.4-0.4-0.6-0.8-0.8-1.2c-0.6-0.8-1.1-1.7-1.6-2.5c-0.2-0.5-0.4-1-0.6-1.3c-0.2-0.5-0.4-1-0.5-1.4s-0.4-1-0.4-1.4
										s-0.1-1-0.2-1.4c-0.1-0.5-0.1-1-0.1-1.4c0-0.5-0.1-1-0.1-1.4l0,0c0-0.6,0-1.1,0-1.7v-0.8v-0.8c0-0.2,0-0.6-0.1-0.8
										c0-0.2,0-0.6-0.1-0.8c-0.1-0.2-0.1-0.6-0.1-0.8c0-0.2-0.1-0.6-0.1-0.8c0-0.2-0.1-0.6-0.1-0.8s-0.1-0.6-0.1-0.8
										s-0.1-0.5-0.1-0.8c-0.1-0.2-0.1-0.5-0.2-0.8c-0.1-0.2-0.1-0.5-0.2-0.8c-0.1-0.2-0.1-0.5-0.2-0.7c0,0,0,0,0-0.1
										c0.1,0.1,0.2,0.2,0.4,0.4c0.2,0.2,0.4,0.4,0.6,0.6c0.2,0.2,0.4,0.4,0.6,0.6l0.6,0.6c0.4,0.4,0.8,0.7,1.2,1.1
										c0.2,0.1,0.5,0.4,0.6,0.6c0.2,0.1,0.5,0.4,0.6,0.5c0.5,0.4,0.8,0.7,1.3,1.1c1,0.6,1.9,1.3,3,1.7l0,0
										c0.6,0.2,1.3,0.6,1.9,0.8c0.6,0.2,1.3,0.6,1.9,0.8c0.6,0.2,1.3,0.6,1.9,0.8c0.6,0.2,1.3,0.6,1.9,1c0.6,0.2,1.3,0.6,1.9,1
										c0.6,0.4,1.3,0.6,1.9,1l3.8,1.8c0.6,0.2,1.3,0.6,1.9,1c0.6,0.4,1.3,0.6,1.9,1c1.3,0.6,2.5,1.2,3.8,1.8
										c2.5,1.2,5.2,2.4,7.7,3.7l0,0c0.8,0.2,1.6,0.6,2.3,1c0.7,0.4,1.4,0.7,2.2,1.2c0.7,0.5,1.4,0.8,2.2,1.3c0.7,0.5,1.3,1,2,1.4
										c2.6,2,5,4.4,6.8,7.2c1.8,2.8,3.4,5.8,4.2,9c0.6,1.6,0.7,3.2,1.1,4.9c0.2,0.8,0.1,1.7,0.2,2.5c0,0.6,0.1,1.3,0.1,1.9
										C142.6,70.1,142.4,69.8,142.1,69.7 M80.4,17.1c0.1,0.1,0.1,0.2,0.2,0.4c0.1,0.2,0.2,0.5,0.4,0.7c0.1,0.2,0.2,0.5,0.2,0.7
										s0.2,0.5,0.2,0.7s0.1,0.5,0.2,0.7s0.1,0.5,0.1,0.7c0.1,0.2,0.1,0.5,0.1,0.7c0,0.2,0.1,0.5,0.1,0.7c0,0.2,0.1,0.5,0.1,0.8
										c0,0.4,0.1,0.5,0.1,0.8c0,0.2,0.1,0.5,0.1,0.8c0,0.4,0,0.5,0.1,0.8c0.1,0.4,0,0.5,0.1,0.8c0,0.2,0,0.5,0,0.8
										c0,0.4,0,0.5,0,0.8c0,0.5,0,1.1,0,1.6l0,0c0,0.5,0.1,1.1,0.1,1.6c0,0.5,0,1.1,0.1,1.6c0.1,0.5,0.2,1,0.2,1.6
										c0,0.6,0.2,1,0.4,1.4c0.1,0.5,0.2,1,0.5,1.4c0.2,0.5,0.4,1,0.6,1.4c0.5,0.8,1,1.8,1.6,2.6c0.2,0.4,0.6,0.8,1,1.2
										c0.4,0.4,0.6,0.8,1,1.2c0.7,0.7,1.4,1.4,2.2,2.2c1.6,1.3,3.2,2.4,5.2,3.2l0,0c0.6,0.2,1.2,0.5,1.7,0.7
										c0.6,0.2,1.2,0.5,1.7,0.7c0.6,0.2,1.2,0.5,1.7,0.7c0.6,0.2,1.2,0.5,1.7,0.7s1.2,0.5,1.7,0.7c0.6,0.2,1.2,0.5,1.7,0.7
										c1.2,0.5,2.3,1,3.5,1.6c0.6,0.2,1.2,0.5,1.7,0.7l1.7,0.7c1.2,0.5,2.3,1,3.5,1.6c2.3,1,4.7,2,6.9,3l0,0
										c0.4,0.1,0.6,0.2,1,0.4c0.4,0.1,0.6,0.2,1,0.4c0.6,0.2,1.2,0.5,1.8,0.7c1.2,0.5,2.4,1.1,3.7,1.6c1.2,0.6,2.4,1.1,3.6,1.7
										c1.2,0.6,2.4,1.2,3.6,1.8c1,0.5,1.8,1,2.6,1.6c0.5,0.2,0.8,0.5,1.3,0.8l0.6,0.4c0.1,0.1,0.4,0.2,0.5,0.4
										c0.2,0.1,0.4,0.4,0.6,0.5l0,0c-0.1-1.1-0.1-2-0.1-3.1c-0.1-0.8,0-1.7-0.2-2.5c-0.2-1.7-0.5-3.4-1.1-4.9
										c-0.8-3.2-2.4-6.4-4.3-9.1c-1.9-2.8-4.3-5.3-6.9-7.3c-0.7-0.5-1.4-1-2-1.4c-0.7-0.5-1.4-1-2.2-1.3
										c-0.7-0.4-1.4-0.8-2.3-1.2c-0.8-0.4-1.6-0.7-2.4-1c-2.5-1.2-5.2-2.4-7.7-3.7l-3.8-1.8c-0.6-0.2-1.3-0.6-1.9-1
										c-0.6-0.4-1.3-0.6-1.9-1c-1.3-0.6-2.6-1.2-3.8-1.8c-0.6-0.2-1.3-0.6-1.9-1c-0.6-0.4-1.3-0.6-1.9-1c-0.6-0.2-1.3-0.6-1.9-1
										c-0.6-0.4-1.3-0.6-1.9-0.8c-0.6-0.2-1.3-0.6-1.9-0.8c-0.6-0.2-1.3-0.6-2-0.8l0,0c-1-0.4-1.9-1-2.8-1.7
										c-0.5-0.4-0.8-0.6-1.3-1c-0.2-0.1-0.5-0.4-0.6-0.5s-0.4-0.4-0.6-0.5c-0.4-0.4-0.8-0.7-1.2-1.1c-0.2-0.2-0.4-0.4-0.6-0.6
										c-0.2-0.2-0.4-0.4-0.6-0.6c-0.2-0.2-0.4-0.4-0.6-0.6c-0.2-0.2-0.4-0.4-0.6-0.6c-0.2-0.2-0.4-0.4-0.6-0.6
										c-0.2-0.2-0.4-0.4-0.6-0.6l-2.2-2.3L80.4,17.1z"/>
								</defs>
								<clipPath id="SVGID_00000127008634051556724830000013593263000831992754_">
									<use xlink:href="#SVGID_00000059988088406401179160000008140337414026414267_"  style="overflow:visible;"/>
								</clipPath>
								<g style="clip-path:url(#SVGID_00000127008634051556724830000013593263000831992754_);">
									<g>
										<g>
											<g>
												<g>
													<g>
														<defs>
															
																<rect id="SVGID_00000132805794699885229380000013848697216047013561_" x="78.7" y="14.5" width="64.9" height="56.9"/>
														</defs>
														<clipPath id="SVGID_00000099643837295074044990000004964996043693219971_">
															<use xlink:href="#SVGID_00000132805794699885229380000013848697216047013561_"  style="overflow:visible;"/>
														</clipPath>
														<g style="clip-path:url(#SVGID_00000099643837295074044990000004964996043693219971_);">
															<g>
																<g>
																	<g>
																		<g>
																			<defs>
																				
																					<rect id="SVGID_00000082338896729126000970000006228272811075669172_" x="78.7" y="14.5" width="64.9" height="56.9"/>
																			</defs>
																			<clipPath id="SVGID_00000055700671391288473320000014491921512952699067_">
																				<use xlink:href="#SVGID_00000082338896729126000970000006228272811075669172_"  style="overflow:visible;"/>
																			</clipPath>
																			<g style="clip-path:url(#SVGID_00000055700671391288473320000014491921512952699067_);">
																			</g>
																		</g>
																	</g>
																</g>
															</g>
														</g>
													</g>
												</g>
											</g>
										</g>
									</g>
								</g>
							</g>
						</g>
					</g>
				</g>
			</g>
			<g>
				<g>
					<g>
						<g>
							<g>
								<defs>
									<path id="SVGID_00000070837863559447729200000010416356998939465869_" d="M118.4,133.8l-41.1,30.6
										c-21.6,17-31.2,20.8-31.2,20.8c37.4,20.5,65.2-5.3,65.2-5.3s41.7-28.8,47.2-33.3c5.5-4.6,21.2-8.1,21.2-8.1
										c-6.6,1-21.8-7.4-21.8-7.4c-6.1-3.4-12-4.6-17.3-4.6C127.8,126.6,118.4,133.8,118.4,133.8"/>
								</defs>
								<clipPath id="SVGID_00000179646744473573000690000013552558030453237939_">
									<use xlink:href="#SVGID_00000070837863559447729200000010416356998939465869_"  style="overflow:visible;"/>
								</clipPath>
								
									<linearGradient id="SVGID_00000020395049602349370460000010487176333144734650_" gradientUnits="userSpaceOnUse" x1="-1658.9012" y1="1531.8601" x2="-1657.7181" y2="1531.8601" gradientTransform="matrix(-58.8029 -21.2838 -21.2838 58.8029 -64798.6914 -125207.3672)">
									<stop  offset="0" style="stop-color:#D1D2D3"/>
									<stop  offset="0.1053" style="stop-color:#CCCDCF"/>
									<stop  offset="0.2223" style="stop-color:#BFC0C1"/>
									<stop  offset="0.3449" style="stop-color:#A9AAAC"/>
									<stop  offset="0.4705" style="stop-color:#8A8B8E"/>
									<stop  offset="0.5291" style="stop-color:#797A7D"/>
									<stop  offset="0.547" style="stop-color:#828385"/>
									<stop  offset="0.6182" style="stop-color:#9E9FA1"/>
									<stop  offset="0.6944" style="stop-color:#B5B6B7"/>
									<stop  offset="0.7769" style="stop-color:#C5C6C7"/>
									<stop  offset="0.8702" style="stop-color:#CECFD0"/>
									<stop  offset="0.9976" style="stop-color:#D1D2D3"/>
									<stop  offset="1" style="stop-color:#D1D2D3"/>
								</linearGradient>
								
									<polygon style="clip-path:url(#SVGID_00000179646744473573000690000013552558030453237939_);fill:url(#SVGID_00000020395049602349370460000010487176333144734650_);" points="
									164.2,248.6 20.8,196.6 61.5,84 204.9,135.9 								"/>
							</g>
						</g>
					</g>
				</g>
			</g>
			<g>
				<g>
					<g>
						<g>
							<g>
								<defs>
									<path id="SVGID_00000166657400762134680490000004416450900658417285_" d="M69.5,192.7c-2.8-0.4-5.4-0.7-8-1.4
										c-2.6-0.6-5.3-1.6-7.8-2.5c-1.3-0.5-2.5-1.1-3.7-1.7c-1.1-0.5-2-1.1-3.1-1.6c0.2-0.1,0.5-0.2,0.6-0.4
										c0.4-0.2,0.8-0.4,1.2-0.6c0.8-0.4,1.6-0.8,2.4-1.3c1.6-0.8,3.1-1.8,4.6-2.8c1.9-1.2,3.8-2.4,5.6-3.7
										c1.8-1.3,3.7-2.5,5.5-3.8c1.8-1.3,3.6-2.6,5.4-4.1c1-0.7,1.8-1.3,2.6-2c0.5-0.4,0.8-0.7,1.3-1.1c0.5-0.4,0.8-0.7,1.3-1.1
										l0,0c3.5-2.5,6.8-5,10.3-7.7c1.7-1.3,3.5-2.5,5.2-3.8c0.8-0.6,1.7-1.3,2.5-1.9s1.7-1.3,2.6-1.9c1.7-1.3,3.5-2.5,5.2-3.8
										c0.8-0.6,1.7-1.3,2.6-1.9c0.8-0.6,1.7-1.3,2.5-1.9s1.7-1.3,2.5-1.9c0.8-0.6,1.7-1.3,2.5-1.9c0.8-0.6,1.7-1.3,2.6-1.9
										c0.8-0.6,1.7-1.3,2.5-1.9l0,0c1.4-1.1,3.1-2,4.8-2.9c1.7-0.8,3.4-1.6,5.2-2.2c1.8-0.6,3.6-1.1,5.4-1.4
										c1-0.1,1.8-0.4,2.8-0.5c0.5,0,1-0.1,1.4-0.1c0.5,0,1-0.1,1.4-0.1c1.6,0.1,3.2-0.1,4.8,0.2c0.8,0.1,1.6,0.1,2.4,0.2
										c0.4,0.1,0.8,0.2,1.2,0.2s0.8,0.2,1.2,0.2c0.4,0,0.8,0.2,1.2,0.2c0.4,0.1,0.7,0.2,1.1,0.4c0.4,0.1,0.7,0.2,1.1,0.4
										c0.4,0.1,0.7,0.2,1.1,0.4c0.4,0.1,0.7,0.2,1.1,0.5c0.4,0.1,0.7,0.4,1.1,0.5c0.4,0.1,0.7,0.4,1.1,0.5
										c0.4,0.1,0.7,0.4,1.1,0.5l0,0c0.8,0.5,1.7,0.8,2.4,1.3c0.4,0.2,0.8,0.4,1.2,0.6c0.4,0.2,0.8,0.4,1.2,0.6
										c0.5,0.2,0.8,0.4,1.2,0.6l1.3,0.6c0.5,0.2,0.8,0.4,1.3,0.6c0.5,0.2,0.8,0.4,1.3,0.5c0.5,0.2,0.8,0.4,1.3,0.5
										s0.8,0.4,1.3,0.5s0.8,0.2,1.3,0.5c0.5,0.1,0.8,0.2,1.3,0.4c0.5,0.1,0.8,0.2,1.3,0.4c0.5,0.1,0.8,0.2,1.3,0.2
										c0.5,0.1,1,0.1,1.3,0.2c0.1,0,0.2,0,0.4,0c-0.1,0-0.4,0.1-0.5,0.1c-0.5,0.1-1,0.2-1.3,0.4c-0.5,0.1-1,0.2-1.3,0.4
										c-0.5,0.1-1,0.2-1.3,0.4c-0.5,0.1-1,0.2-1.3,0.4c-1,0.2-1.8,0.6-2.8,1c-0.5,0.1-1,0.4-1.3,0.5l-1.3,0.5
										c-0.8,0.4-1.8,0.7-2.6,1.1c-1.7,0.8-3.5,1.7-5,2.9l0,0c-1,0.7-1.9,1.4-2.9,2.2c-1,0.7-1.9,1.4-2.9,2.2
										c-1,0.7-1.9,1.4-2.9,2.2c-1,0.7-1.9,1.4-2.9,2.2l-3,2c-1,0.7-1.9,1.4-3,2c-1.9,1.3-4,2.8-5.9,4.2c-1,0.7-2,1.3-3,2
										c-1,0.7-2,1.3-3,2c-2,1.3-4,2.8-5.9,4.1c-4,2.8-7.9,5.5-11.9,8.3l0,0c-0.6,0.5-1.2,1-1.8,1.4c-0.6,0.5-1.2,1-1.8,1.3
										c-1.2,0.8-2.5,1.7-3.8,2.4c-2.6,1.6-5.4,2.9-8.1,4c-2.9,1.1-5.8,2-8.7,2.6c-3,0.6-6,1.1-9,1.2c-0.8,0-1.6,0-2.4,0
										C73.5,192.9,71.4,192.9,69.5,192.7 M137.9,126.5c-0.5,0-1,0.1-1.4,0.1c-1,0.1-1.9,0.2-2.8,0.5c-1.8,0.4-3.7,0.8-5.5,1.4
										c-1.8,0.6-3.5,1.3-5.2,2.2s-3.4,1.8-4.9,2.9l0,0c-0.8,0.6-1.7,1.3-2.6,1.9c-0.8,0.6-1.7,1.3-2.5,1.9s-1.7,1.3-2.6,1.9
										c-1,0.6-1.7,1.3-2.6,1.9c-0.8,0.6-1.7,1.3-2.5,1.9s-1.7,1.3-2.6,1.9c-1.7,1.3-3.5,2.5-5.2,3.8c-0.8,0.6-1.7,1.3-2.5,1.9
										c-0.8,0.6-1.7,1.3-2.5,1.9c-1.7,1.3-3.5,2.5-5.2,3.8c-3.5,2.5-6.8,5.2-10.3,7.7l0,0c-0.5,0.4-0.8,0.7-1.3,1.1
										c-0.5,0.4-0.8,0.7-1.3,1.1c-0.8,0.7-1.8,1.3-2.6,2c-1.8,1.3-3.6,2.6-5.4,4.1c-1.8,1.3-3.6,2.6-5.5,3.8
										c-1.9,1.2-3.7,2.5-5.6,3.7c-1.4,1-3,1.8-4.6,2.8c-0.7,0.5-1.6,0.8-2.3,1.3c-0.4,0.2-0.8,0.4-1.2,0.6
										c-0.2,0.1-0.4,0.2-0.6,0.2c-0.2,0.1-0.8,0.4-1.2,0.5l0,0c0.8,0.4,1.6,0.8,2.4,1.2c0.6,0.4,1.2,0.6,1.8,1
										c1.3,0.6,2.5,1.2,3.8,1.7c2.6,1,5.2,1.9,7.9,2.6c2.6,0.7,5.4,1.2,8.1,1.4c2.8,0.2,5.5,0.4,8.3,0.2c3.1-0.1,6.1-0.6,9.1-1.2
										c3-0.6,6-1.6,8.7-2.6c2.9-1.1,5.6-2.5,8.3-4c1.3-0.7,2.6-1.6,3.8-2.5c0.6-0.5,1.2-0.8,1.9-1.3c0.6-0.5,1.2-1,1.8-1.4l0,0
										c4-2.8,7.9-5.5,11.9-8.3c2-1.3,4-2.8,5.9-4.1c1-0.7,2-1.3,3-2c1-0.7,2-1.3,3-2c2-1.3,4-2.8,5.9-4.2c1-0.7,1.9-1.4,3-2
										s1.9-1.4,3-2c1-0.7,1.9-1.4,2.9-2.2s1.9-1.4,3-2.2c1-0.7,1.9-1.4,2.9-2.2c1-0.7,1.9-1.4,2.9-2.2l0,0c1.4-1.2,3.1-2,4.9-2.8
										c0.8-0.4,1.7-0.7,2.6-1.1l1.3-0.5c0.5-0.1,0.8-0.4,1.3-0.5c0.8-0.4,1.8-0.6,2.6-1c0.5-0.1,1-0.2,1.3-0.4
										c0.5-0.1,1-0.2,1.3-0.4l1.3-0.4c0.5-0.1,1-0.2,1.3-0.4c0.5-0.1,1-0.2,1.3-0.4c0.5-0.1,1-0.2,1.3-0.4l3.1-0.7l-3.2,0.1
										c-0.2,0-0.5,0-0.7,0c-0.2,0-0.4,0-0.6,0l-1.3-0.1c-0.5,0-0.8-0.1-1.3-0.2s-0.8-0.2-1.3-0.2c-0.5-0.1-0.8-0.2-1.3-0.4
										c-0.5-0.1-0.8-0.2-1.3-0.4c-0.5-0.1-0.8-0.2-1.3-0.5c-0.5-0.2-0.8-0.4-1.3-0.5s-0.8-0.4-1.3-0.5c-0.5-0.2-0.8-0.4-1.3-0.5
										c-0.5-0.2-0.8-0.4-1.2-0.5c-0.5-0.2-0.8-0.4-1.2-0.6s-0.8-0.4-1.2-0.6c-0.4-0.2-0.8-0.4-1.2-0.6c-0.4-0.2-0.8-0.4-1.2-0.6
										c-0.8-0.4-1.7-0.8-2.4-1.3l0,0c-0.4-0.2-0.7-0.4-1.1-0.5c-0.4-0.1-0.7-0.4-1.1-0.5l-1.1-0.5c-0.4-0.2-0.7-0.4-1.1-0.5
										c-0.4-0.1-0.7-0.2-1.1-0.4c-0.4-0.1-0.7-0.2-1.1-0.4c-0.4-0.1-0.7-0.2-1.2-0.4c-0.4-0.1-0.8-0.2-1.2-0.2
										c-0.4-0.1-0.8-0.2-1.2-0.2c-0.4-0.1-0.8-0.2-1.2-0.2c-0.8-0.1-1.6-0.2-2.4-0.2c-1.6-0.2-3.2-0.1-4.8-0.2L137.9,126.5z"/>
								</defs>
								<clipPath id="SVGID_00000031167707762104184330000000212560591045590457_">
									<use xlink:href="#SVGID_00000166657400762134680490000004416450900658417285_"  style="overflow:visible;"/>
								</clipPath>
								<g style="clip-path:url(#SVGID_00000031167707762104184330000000212560591045590457_);">
									<g>
										<g>
											<g>
												<g>
													<g>
														<defs>
															
																<rect id="SVGID_00000055707817431583524260000000152259971466129069_" x="45.3" y="126.4" width="137.4" height="67.2"/>
														</defs>
														<clipPath id="SVGID_00000018214586532117352950000009174673333266212241_">
															<use xlink:href="#SVGID_00000055707817431583524260000000152259971466129069_"  style="overflow:visible;"/>
														</clipPath>
														<g style="clip-path:url(#SVGID_00000018214586532117352950000009174673333266212241_);">
															<g>
																<g>
																	<g>
																		<g>
																			<defs>
																				
																					<rect id="SVGID_00000075127654128286403400000005912002821543612312_" x="45.3" y="126.4" width="137.4" height="67.2"/>
																			</defs>
																			<clipPath id="SVGID_00000043443726014942744780000011622062816549306041_">
																				<use xlink:href="#SVGID_00000075127654128286403400000005912002821543612312_"  style="overflow:visible;"/>
																			</clipPath>
																			<g style="clip-path:url(#SVGID_00000043443726014942744780000011622062816549306041_);">
																			</g>
																		</g>
																	</g>
																</g>
															</g>
														</g>
													</g>
												</g>
											</g>
										</g>
									</g>
								</g>
							</g>
						</g>
					</g>
				</g>
			</g>
			<g>
				<g>
					<g>
						<g>
							<g>
								<defs>
									<path id="SVGID_00000046337336014404351210000015828608285602392752_" d="M160.1,154.2l-24,18.5
										c-12.6,10.3-18.2,12.6-18.2,12.6c21.3,11.7,37.6-3.7,37.6-3.7s24.3-17.4,27.6-20.1c3.2-2.8,12.2-5,12.2-5
										c-3.8,0.6-12.5-4.1-12.5-4.1c-3.4-1.8-6.6-2.5-9.5-2.5C165.7,149.8,160.1,154.2,160.1,154.2"/>
								</defs>
								<clipPath id="SVGID_00000030454129529340919980000003755630297806521496_">
									<use xlink:href="#SVGID_00000046337336014404351210000015828608285602392752_"  style="overflow:visible;"/>
								</clipPath>
								
									<linearGradient id="SVGID_00000101808390895610240550000011509945260998749603_" gradientUnits="userSpaceOnUse" x1="-1614.9047" y1="1516.2361" x2="-1613.7212" y2="1516.2361" gradientTransform="matrix(65.3998 0 0 -65.3998 105732.375 99334.8984)">
									<stop  offset="0" style="stop-color:#D1D2D3"/>
									<stop  offset="0.1053" style="stop-color:#CCCDCF"/>
									<stop  offset="0.2223" style="stop-color:#BFC0C1"/>
									<stop  offset="0.3449" style="stop-color:#A9AAAC"/>
									<stop  offset="0.4705" style="stop-color:#8A8B8E"/>
									<stop  offset="0.5291" style="stop-color:#797A7D"/>
									<stop  offset="0.547" style="stop-color:#828385"/>
									<stop  offset="0.6182" style="stop-color:#9E9FA1"/>
									<stop  offset="0.6944" style="stop-color:#B5B6B7"/>
									<stop  offset="0.7769" style="stop-color:#C5C6C7"/>
									<stop  offset="0.8702" style="stop-color:#CECFD0"/>
									<stop  offset="0.9976" style="stop-color:#D1D2D3"/>
									<stop  offset="1" style="stop-color:#D1D2D3"/>
								</linearGradient>
								
									<rect x="117.9" y="149.8" style="clip-path:url(#SVGID_00000030454129529340919980000003755630297806521496_);fill:url(#SVGID_00000101808390895610240550000011509945260998749603_);" width="77.4" height="47.2"/>
							</g>
						</g>
					</g>
				</g>
			</g>
			<g>
				<g>
					<g>
						<g>
							<g>
								<defs>
									<path id="SVGID_00000164485139645968061860000015060392648143308212_" d="M128.9,188.9c-1.2-0.2-2.5-0.5-3.7-0.8
										c-1.2-0.5-2.5-0.8-3.6-1.3c-1-0.5-1.9-1-3-1.4c0.2-0.1,0.6-0.2,0.8-0.5c0.5-0.2,1-0.5,1.3-0.7c1-0.5,1.8-1.1,2.6-1.7
										c1.1-0.7,2.2-1.4,3.4-2.3c1.1-0.7,2.2-1.6,3.2-2.4c1.1-0.8,2.2-1.6,3.1-2.4l1.6-1.2c0.2-0.2,0.5-0.5,0.8-0.6
										c0.4-0.1,0.5-0.5,0.8-0.6l0,0c2-1.6,4-3.1,6-4.7c1-0.7,2-1.6,3-2.3c0.5-0.4,1-0.7,1.4-1.2c0.5-0.4,1-0.7,1.4-1.2
										c1-0.7,2-1.6,3-2.3c0.5-0.4,1-0.7,1.4-1.2c0.5-0.5,1-0.7,1.4-1.2c0.5-0.5,1-0.7,1.6-1.2c0.6-0.5,1-0.7,1.4-1.2
										c0.5-0.5,1-0.7,1.4-1.2c0.5-0.4,1-0.7,1.4-1.2l0,0c1-0.7,2-1.3,3.1-1.9c1.1-0.6,2.3-1,3.5-1.4c0.6-0.2,1.2-0.4,1.8-0.5
										s1.2-0.2,1.8-0.4l1.8-0.2c0.4,0,0.6,0,1,0s0.6,0,1,0c0.7,0.1,1.4,0.1,2.2,0.2c0.7,0.1,1.4,0.2,2.2,0.5
										c0.7,0.2,1.4,0.5,2.2,0.7c0.4,0.1,0.7,0.4,1,0.5c0.4,0.1,0.7,0.4,1,0.5l0,0l1.4,0.7c0.2,0.1,0.5,0.2,0.7,0.4
										c0.2,0.1,0.5,0.2,0.7,0.4c0.2,0.1,0.5,0.2,0.7,0.4c0.2,0.1,0.5,0.2,0.7,0.4c0.2,0.1,0.5,0.2,0.7,0.4
										c0.2,0.1,0.5,0.2,0.7,0.2l0.7,0.2c0.2,0.1,0.5,0.1,0.7,0.2s0.5,0.1,0.7,0.2s0.5,0.1,0.7,0.2c0.2,0.1,0.5,0.1,0.7,0.2
										c0.2,0.1,0.5,0.1,0.7,0.1c0.1,0,0.2,0,0.4,0.1c-0.1,0-0.4,0.1-0.5,0.1c-0.2,0.1-0.5,0.1-0.8,0.2c-0.4,0.1-0.5,0.1-0.8,0.2
										c-0.2,0.1-0.5,0.1-0.8,0.2c-0.5,0.1-1.1,0.4-1.6,0.6c-0.2,0.1-0.5,0.2-0.7,0.2c-0.2,0.1-0.5,0.2-0.7,0.4
										c-0.5,0.2-1.1,0.5-1.6,0.7c-1,0.5-2,1.1-2.9,1.8l0,0c-0.5,0.5-1.1,0.8-1.7,1.3c-0.6,0.5-1.1,0.8-1.7,1.3
										c-0.6,0.5-1.1,0.8-1.7,1.3l-1.7,1.3c-0.6,0.5-1.1,0.8-1.7,1.3c-0.6,0.5-1.2,0.8-1.7,1.3c-1.2,0.8-2.3,1.7-3.5,2.5
										c-0.6,0.5-1.2,0.8-1.7,1.2c-0.6,0.5-1.2,0.8-1.7,1.2c-1.2,0.8-2.3,1.7-3.5,2.5c-2.3,1.7-4.7,3.4-6.9,4.9l0,0
										c-0.4,0.4-0.7,0.7-1.2,1c-0.4,0.4-0.8,0.6-1.2,1c-0.8,0.6-1.7,1.2-2.6,1.7c-1.8,1.1-3.6,1.9-5.5,2.6c-1,0.4-1.9,0.6-2.9,1
										c-1,0.2-2,0.5-3,0.6c-1,0.1-2,0.2-3,0.4h-3.1C131.6,189.2,130.3,189.1,128.9,188.9 M173.3,149.5c-0.4,0-0.6,0-1,0
										c-0.6,0-1.3,0.1-1.9,0.2s-1.2,0.2-1.9,0.4c-0.6,0.1-1.2,0.4-1.8,0.5c-1.2,0.4-2.4,0.8-3.5,1.4c-1.1,0.6-2.3,1.2-3.2,2l0,0
										c-0.5,0.4-1,0.7-1.4,1.2c-0.5,0.5-1,0.7-1.4,1.2l-1.4,1.2c-0.5,0.4-1,0.7-1.4,1.2c-0.5,0.5-1,0.7-1.6,1.2l-1.4,1.2
										c-1,0.7-2,1.6-3,2.3l-1.4,1.2c-0.5,0.4-1,0.7-1.4,1.2c-1,0.7-2,1.6-3,2.3l-6,4.7l0,0c-0.2,0.2-0.5,0.5-0.8,0.6
										s-0.5,0.5-0.8,0.6c-0.5,0.5-1.1,0.8-1.6,1.2c-1.1,0.8-2.2,1.7-3.1,2.4c-1.1,0.8-2.2,1.6-3.2,2.4c-1.1,0.7-2.2,1.6-3.4,2.3
										c-0.8,0.6-1.7,1.1-2.6,1.7c-0.5,0.2-0.8,0.5-1.3,0.7c-0.2,0.1-0.5,0.2-0.7,0.4c-0.2,0.1-0.4,0.1-0.6,0.2
										c-0.2,0.1-0.5,0.2-0.7,0.4l0,0c1.3,0.7,2.8,1.3,4.1,1.9c1.2,0.5,2.5,0.8,3.7,1.3c1.2,0.4,2.5,0.6,3.8,1
										c1.3,0.2,2.6,0.2,4,0.5c1.1,0,2,0,3.1,0c1.1-0.1,2-0.2,3.1-0.4c1-0.1,2-0.5,3-0.6c1-0.2,2-0.6,3-1c1.9-0.7,3.8-1.6,5.6-2.6
										c1-0.5,1.8-1.1,2.6-1.7c0.4-0.2,0.8-0.6,1.2-1s0.8-0.7,1.2-1c2.3-1.7,4.7-3.4,6.9-4.9c1.2-0.8,2.3-1.7,3.5-2.5
										c0.6-0.5,1.2-0.8,1.7-1.2c0.6-0.5,1.2-0.8,1.7-1.3c1.2-0.8,2.3-1.7,3.5-2.5c0.6-0.5,1.2-0.8,1.7-1.3
										c0.5-0.5,1.2-0.8,1.7-1.3c0.6-0.5,1.2-0.8,1.7-1.3c0.6-0.5,1.1-0.8,1.7-1.3c0.6-0.5,1.1-0.8,1.7-1.3
										c0.6-0.5,1.1-0.8,1.7-1.3l0,0c0.8-0.7,1.8-1.2,2.8-1.7c0.5-0.2,1-0.5,1.4-0.7c0.2-0.1,0.5-0.2,0.7-0.4
										c0.2-0.1,0.5-0.2,0.7-0.2c0.5-0.2,1.1-0.4,1.6-0.6c0.2-0.1,0.5-0.1,0.8-0.2c0.4-0.1,0.5-0.1,0.8-0.2
										c0.4-0.1,0.5-0.1,0.8-0.2c0.2-0.1,0.5-0.1,0.8-0.2c0.2-0.1,0.5-0.1,0.8-0.2c0.2-0.1,0.5-0.1,0.8-0.2l3-0.8l-3.1,0.2H195
										c-0.1,0-0.2,0-0.4,0c-0.2,0-0.5,0-0.7,0c-0.2,0-0.5-0.1-0.7-0.1c-0.2,0-0.5-0.1-0.7-0.1c-0.2-0.1-0.5-0.1-0.7-0.2
										c-0.2-0.1-0.5-0.1-0.7-0.2c-0.2-0.1-0.5-0.1-0.7-0.2c-0.2-0.1-0.5-0.1-0.7-0.2c-0.2-0.1-0.5-0.2-0.7-0.2
										c-0.2-0.1-0.5-0.2-0.7-0.2c-0.2-0.1-0.5-0.2-0.7-0.2c-0.2-0.1-0.5-0.2-0.7-0.4c-0.2-0.1-0.5-0.2-0.7-0.4
										c-0.2-0.1-0.5-0.2-0.7-0.4l-0.7-0.4c-0.5-0.2-1-0.5-1.3-0.7l0,0l-1.1-0.5c-0.4-0.1-0.7-0.4-1.1-0.5
										c-0.7-0.2-1.4-0.5-2.2-0.7c-0.7-0.2-1.4-0.4-2.3-0.5c-0.7-0.1-1.6-0.1-2.3-0.2C174,149.4,173.6,149.4,173.3,149.5"/>
								</defs>
								<clipPath id="SVGID_00000031204892255965125740000005853706329856088254_">
									<use xlink:href="#SVGID_00000164485139645968061860000015060392648143308212_"  style="overflow:visible;"/>
								</clipPath>
								<g style="clip-path:url(#SVGID_00000031204892255965125740000005853706329856088254_);">
									<g>
										<g>
											<g>
												<g>
													<g>
														<defs>
															
																<rect id="SVGID_00000147913488311128788830000002408699399624427426_" x="117.2" y="149.4" width="81.1" height="40.5"/>
														</defs>
														<clipPath id="SVGID_00000140726795465445774790000011885290751229585061_">
															<use xlink:href="#SVGID_00000147913488311128788830000002408699399624427426_"  style="overflow:visible;"/>
														</clipPath>
														<g style="clip-path:url(#SVGID_00000140726795465445774790000011885290751229585061_);">
															<g>
																<g>
																	<g>
																		<g>
																			<defs>
																				
																					<rect id="SVGID_00000150084462350875912970000010228923566986778041_" x="117.2" y="149.4" width="81.1" height="40.5"/>
																			</defs>
																			<clipPath id="SVGID_00000124864853509469590340000001239984093745036189_">
																				<use xlink:href="#SVGID_00000150084462350875912970000010228923566986778041_"  style="overflow:visible;"/>
																			</clipPath>
																			<g style="clip-path:url(#SVGID_00000124864853509469590340000001239984093745036189_);">
																			</g>
																		</g>
																	</g>
																</g>
															</g>
														</g>
													</g>
												</g>
											</g>
										</g>
									</g>
								</g>
							</g>
						</g>
					</g>
				</g>
			</g>
			<g>
				<g>
					<g>
						<g>
							<g>
								<defs>
									<path id="SVGID_00000065793766415184454320000008349658321205896592_" d="M35.9,101.8c0,0,4.7,50.4,5.9,57.5
										s-3.4,22.4-3.4,22.4c2.4-6.2,17.1-15.3,17.1-15.3c20.4-12.7,17-35.7,17-35.7L66,79.9c-4.3-27.1-2.9-37.4-2.9-37.4
										C27,64.9,35.9,101.8,35.9,101.8"/>
								</defs>
								<clipPath id="SVGID_00000057845620298391925930000012642461490846254480_">
									<use xlink:href="#SVGID_00000065793766415184454320000008349658321205896592_"  style="overflow:visible;"/>
								</clipPath>
								
									<linearGradient id="SVGID_00000043455761057815387500000008772340504928501665_" gradientUnits="userSpaceOnUse" x1="-1594.3639" y1="1504.658" x2="-1593.181" y2="1504.658" gradientTransform="matrix(32.025 0 0 -32.025 51094.418 48298.8672)">
									<stop  offset="0" style="stop-color:#D1D2D3"/>
									<stop  offset="0.1053" style="stop-color:#CCCDCF"/>
									<stop  offset="0.2223" style="stop-color:#BFC0C1"/>
									<stop  offset="0.3449" style="stop-color:#A9AAAC"/>
									<stop  offset="0.4705" style="stop-color:#8A8B8E"/>
									<stop  offset="0.5291" style="stop-color:#797A7D"/>
									<stop  offset="0.547" style="stop-color:#828385"/>
									<stop  offset="0.6182" style="stop-color:#9E9FA1"/>
									<stop  offset="0.6944" style="stop-color:#B5B6B7"/>
									<stop  offset="0.7769" style="stop-color:#C5C6C7"/>
									<stop  offset="0.8702" style="stop-color:#CECFD0"/>
									<stop  offset="0.9976" style="stop-color:#D1D2D3"/>
									<stop  offset="1" style="stop-color:#D1D2D3"/>
								</linearGradient>
								
									<rect x="27" y="42.5" style="clip-path:url(#SVGID_00000057845620298391925930000012642461490846254480_);fill:url(#SVGID_00000043455761057815387500000008772340504928501665_);" width="48.9" height="139.3"/>
							</g>
						</g>
					</g>
				</g>
			</g>
			<g>
				<g>
					<g>
						<g>
							<g>
								<defs>
									<path id="SVGID_00000083087848636812067570000017908527176626454444_" d="M39.3,179.5c0.1-0.4,0.2-0.8,0.4-1.2
										c0.1-0.4,0.2-0.8,0.2-1.2c0.1-0.4,0.2-0.8,0.2-1.2s0.2-0.8,0.2-1.2c0.2-0.8,0.4-1.7,0.5-2.4c0.1-0.4,0.1-0.8,0.2-1.2
										c0.1-0.4,0.1-0.8,0.2-1.2c0.1-0.8,0.2-1.7,0.4-2.5c0.2-1.7,0.4-3.4,0.4-4.9c0-0.5,0-1,0-1.6c0-0.5-0.1-1-0.2-1.6l0,0
										c-0.2-1.2-0.4-2.4-0.5-3.6c-0.1-1.2-0.2-2.4-0.4-3.6c-0.1-1.2-0.2-2.4-0.4-3.6c-0.1-1.2-0.2-2.4-0.4-3.6
										c-0.1-1.2-0.2-2.4-0.4-3.6c-0.1-1.2-0.2-2.4-0.4-3.6c-0.2-2.4-0.5-4.8-0.7-7.2c-0.1-1.2-0.2-2.4-0.4-3.6
										c-0.1-1.2-0.2-2.4-0.4-3.6c-0.2-2.4-0.5-4.8-0.7-7.2c-0.5-4.8-1-9.6-1.3-14.4l0,0c-0.1-0.4-0.1-0.7-0.2-1.1
										c0-0.4-0.1-0.7-0.1-1.1c-0.1-0.7-0.2-1.6-0.2-2.3c-0.1-0.7-0.1-1.6-0.1-2.3c0-0.7,0-1.6-0.1-2.3c0-1.2,0-2.5,0.1-3.7
										s0.1-2.5,0.4-3.7c0.2-2.5,0.7-4.9,1.3-7.4c1.2-4.9,3.1-9.6,5.5-13.9c2.5-4.3,5.6-8.3,9.1-11.9c0.8-0.8,1.8-1.7,2.8-2.5
										c1-0.8,1.9-1.6,2.9-2.4c1-0.7,2-1.4,3-2.3l2.6-1.8c0,0.1,0,0.4,0,0.5c0,0.4,0,0.7,0,1.1c0,0.7,0,1.4,0,2.2
										c0,1.4,0,2.9,0,4.3c0,0.7,0,1.4,0.1,2c0.1,2.3,0.2,4.6,0.5,6.7c0.2,2.3,0.4,4.4,0.7,6.7c0.2,2.3,0.6,4.4,0.8,6.7
										c0.1,1.1,0.2,2.3,0.5,3.4l0.2,1.7c0.1,0.6,0.1,1.1,0.2,1.7l0,0c0.6,4.2,1.1,8.5,1.6,12.7c0.2,2.2,0.6,4.2,0.8,6.4
										c0.1,1.1,0.2,2.2,0.4,3.2c0.1,1.1,0.2,2.2,0.4,3.2c0.2,2.2,0.6,4.2,0.8,6.4l0.4,3.2c0.1,1.1,0.2,2.2,0.4,3.2
										c0.1,1.1,0.2,2.2,0.4,3.2c0.1,1.1,0.2,2.2,0.4,3.2l0.4,3.2c0.1,1.1,0.2,2.2,0.4,3.2l0,0c0,0.2,0,0.6,0.1,1c0,0.4,0,0.6,0,1
										s0,0.6,0,1s0,0.6,0,1c0,3.1-0.4,6.2-1.1,9.3l-0.6,2.3c-0.2,0.7-0.5,1.4-0.7,2.2c-0.1,0.4-0.2,0.7-0.4,1.1
										c-0.1,0.4-0.4,0.7-0.5,1.1c-0.4,0.7-0.6,1.4-1,2.2c-0.8,1.3-1.6,2.8-2.5,4c-0.5,0.6-0.8,1.3-1.4,1.9
										c-0.5,0.6-1.1,1.2-1.6,1.7c-0.2,0.2-0.5,0.6-0.8,0.8c-0.2,0.2-0.6,0.5-0.8,0.7c-0.6,0.5-1.2,1.1-1.8,1.6
										c-0.6,0.5-1.3,1-1.9,1.4c-0.6,0.5-1.3,1-1.9,1.3l0,0c-0.8,0.5-1.6,1.1-2.4,1.6l-1.2,0.8c-0.4,0.2-0.7,0.5-1.2,0.8
										c-0.5,0.4-0.7,0.6-1.2,0.8c-0.5,0.2-0.7,0.6-1.1,0.8c-0.4,0.2-0.7,0.6-1.1,0.8c-0.4,0.2-0.7,0.6-1.1,0.8
										c-0.4,0.2-0.7,0.6-1.1,1c-0.4,0.2-0.7,0.6-1.1,1c-0.4,0.4-0.7,0.6-1.1,1c-0.4,0.4-0.7,0.7-1,1c-0.4,0.4-0.6,0.7-1,1.1
										c-0.4,0.4-0.6,0.7-1,1.1C39.8,178.9,39.6,179.2,39.3,179.5C39.3,179.6,39.3,179.5,39.3,179.5 M63.6,41.9l-3.7,2.4
										c-1,0.7-2,1.4-3,2.3c-1,0.8-1.9,1.6-2.9,2.4s-1.9,1.7-2.8,2.6c-3.6,3.6-6.7,7.5-9.2,12c-2.5,4.4-4.4,9.1-5.6,14
										c-0.6,2.5-1.1,4.9-1.3,7.4c-0.1,1.3-0.2,2.5-0.4,3.8c0,1.3-0.1,2.5-0.1,3.8c0,0.8,0,1.6,0.1,2.3c0,0.8,0.1,1.6,0.1,2.3
										c0.1,0.8,0.1,1.6,0.2,2.3c0,0.4,0.1,0.7,0.1,1.2c0,0.5,0.1,0.7,0.2,1.2l0,0c0.5,4.8,1,9.6,1.3,14.4
										c0.2,2.4,0.5,4.8,0.7,7.2c0.1,1.2,0.2,2.4,0.4,3.6c0.1,1.2,0.2,2.4,0.4,3.6c0.2,2.4,0.5,4.8,0.7,7.2
										c0.1,1.2,0.2,2.4,0.4,3.6c0.1,1.2,0.2,2.4,0.4,3.6c0.1,1.2,0.2,2.4,0.4,3.6l0.4,3.6c0.1,1.2,0.2,2.4,0.4,3.6
										c0.1,1.2,0.4,2.4,0.5,3.6l0,0c0,0.5,0.1,1,0.1,1.4c0,0.5,0,1,0,1.4c0,1.7-0.1,3.2-0.4,4.9c-0.1,0.8-0.2,1.7-0.4,2.4
										c-0.1,0.4-0.1,0.8-0.2,1.2s-0.1,0.8-0.2,1.2c-0.1,0.8-0.4,1.7-0.5,2.4c-0.1,0.4-0.1,0.8-0.2,1.2c-0.1,0.4-0.2,0.8-0.2,1.2
										c-0.1,0.4-0.2,0.8-0.2,1.2c-0.1,0.4-0.2,0.8-0.4,1.2c-0.1,0.4-0.2,0.8-0.4,1.2c-0.1,0.4-0.2,0.8-0.4,1.2l-0.8,3.1l1.4-2.9
										c0.1-0.2,0.2-0.5,0.4-0.6c0.2-0.5,0.5-0.8,0.7-1.2c0.2-0.4,0.5-0.7,0.8-1.1c0.2-0.4,0.6-0.7,1-1.1c0.4-0.4,0.6-0.7,1-1
										c0.4-0.4,0.7-0.6,1-1c0.4-0.4,0.7-0.6,1.1-1c0.4-0.4,0.7-0.6,1.1-1c0.4-0.2,0.7-0.6,1.1-1c0.4-0.2,0.7-0.6,1.1-0.8
										c0.4-0.2,0.7-0.6,1.1-0.8c0.4-0.2,0.7-0.6,1.1-0.8c0.4-0.2,0.7-0.6,1.2-0.8c0.4-0.2,0.7-0.5,1.2-0.8
										c0.5-0.4,0.7-0.5,1.2-0.8c0.8-0.5,1.6-1.1,2.4-1.6l0,0c0.6-0.5,1.3-1,1.9-1.3c0.6-0.5,1.3-0.8,1.9-1.4
										c0.6-0.6,1.2-1.1,1.8-1.6c0.2-0.2,0.6-0.5,1-0.8c0.2-0.2,0.6-0.6,0.8-0.8c0.6-0.6,1.1-1.2,1.6-1.8c0.5-0.6,1-1.3,1.4-1.9
										c1-1.2,1.7-2.6,2.5-4.1c0.4-0.7,0.7-1.4,1-2.2c0.1-0.4,0.4-0.7,0.5-1.1c0.1-0.4,0.2-0.7,0.4-1.1c0.2-0.7,0.6-1.4,0.8-2.3
										c0.2-0.7,0.4-1.6,0.6-2.3c0.7-3.1,1.1-6.2,1.1-9.5c0-0.4,0-0.6,0-1s0-0.6,0-1s0-0.6,0-1s0-0.6-0.1-1l0,0
										c-0.1-1.1-0.2-2.2-0.4-3.2l-0.4-3.2c-0.1-1.1-0.2-2.2-0.4-3.2s-0.2-2.2-0.4-3.2c-0.1-1.1-0.2-2.2-0.4-3.2
										c-0.1-1.1-0.2-2.2-0.4-3.2c-0.2-2.2-0.6-4.2-0.8-6.4c-0.1-1.1-0.2-2.2-0.4-3.2c-0.1-1.1-0.2-2.2-0.4-3.2
										c-0.2-2.2-0.6-4.2-0.8-6.4c-0.8-3.6-1.4-7.8-1.9-12l0,0c-0.1-0.6-0.1-1.1-0.2-1.7c-0.1-0.6-0.1-1.1-0.2-1.7
										c-0.2-1.1-0.4-2.3-0.5-3.4c-0.4-2.3-0.6-4.4-0.8-6.7c-0.2-2.3-0.5-4.4-0.6-6.7c-0.2-2.3-0.4-4.4-0.5-6.7c0-0.7,0-1.4-0.1-2
										c0-1.4,0-2.9,0-4.2c0-0.7,0-1.4,0-2.2v-1.1c0-0.2,0-0.4,0-0.6C63.5,42.8,63.6,42.3,63.6,41.9L63.6,41.9L63.6,41.9"/>
								</defs>
								<clipPath id="SVGID_00000078038322826070314110000001663642795484225979_">
									<use xlink:href="#SVGID_00000083087848636812067570000017908527176626454444_"  style="overflow:visible;"/>
								</clipPath>
								<g style="clip-path:url(#SVGID_00000078038322826070314110000001663642795484225979_);">
									<g>
										<g>
											<g>
												<g>
													<g>
														<defs>
															
																<rect id="SVGID_00000134970278030181574570000001328190633486809768_" x="34.5" y="41.9" width="38.5" height="142.8"/>
														</defs>
														<clipPath id="SVGID_00000102501983086645442470000007410433597027693962_">
															<use xlink:href="#SVGID_00000134970278030181574570000001328190633486809768_"  style="overflow:visible;"/>
														</clipPath>
														<g style="clip-path:url(#SVGID_00000102501983086645442470000007410433597027693962_);">
															<g>
																<g>
																	<g>
																		<g>
																			<defs>
																				
																					<rect id="SVGID_00000132081661292182515810000001384268875203289237_" x="34.5" y="41.9" width="38.5" height="142.8"/>
																			</defs>
																			<clipPath id="SVGID_00000049195332030785970170000015605818525124635535_">
																				<use xlink:href="#SVGID_00000132081661292182515810000001384268875203289237_"  style="overflow:visible;"/>
																			</clipPath>
																			<g style="clip-path:url(#SVGID_00000049195332030785970170000015605818525124635535_);">
																			</g>
																		</g>
																	</g>
																</g>
															</g>
														</g>
													</g>
												</g>
											</g>
										</g>
									</g>
								</g>
							</g>
						</g>
					</g>
				</g>
			</g>
			<g>
				<g>
					<g>
						<g>
							<g>
								<defs>
									<path id="SVGID_00000132073930032104645570000015119972046789253006_" d="M15.5,141c0,0,3.2,29.7,4.1,33.9
										s-1.7,13.2-1.7,13.2c1.3-3.6,9.7-8.9,9.7-8.9c11.6-7.2,9.5-20.7,9.5-20.7l-4.3-30c-2.8-15.9-2-22-2-22
										C10,119.3,15.5,141,15.5,141"/>
								</defs>
								<clipPath id="SVGID_00000075848011977326994270000013677413727593252025_">
									<use xlink:href="#SVGID_00000132073930032104645570000015119972046789253006_"  style="overflow:visible;"/>
								</clipPath>
								
									<linearGradient id="SVGID_00000121241205887788938820000014682015607569192623_" gradientUnits="userSpaceOnUse" x1="-1566.2534" y1="1488.3186" x2="-1565.0707" y2="1488.3186" gradientTransform="matrix(18.8848 0 0 -18.8848 29593.2266 28253.9004)">
									<stop  offset="0" style="stop-color:#D1D2D3"/>
									<stop  offset="0.1053" style="stop-color:#CCCDCF"/>
									<stop  offset="0.2223" style="stop-color:#BFC0C1"/>
									<stop  offset="0.3449" style="stop-color:#A9AAAC"/>
									<stop  offset="0.4705" style="stop-color:#8A8B8E"/>
									<stop  offset="0.5291" style="stop-color:#797A7D"/>
									<stop  offset="0.547" style="stop-color:#828385"/>
									<stop  offset="0.6182" style="stop-color:#9E9FA1"/>
									<stop  offset="0.6944" style="stop-color:#B5B6B7"/>
									<stop  offset="0.7769" style="stop-color:#C5C6C7"/>
									<stop  offset="0.8702" style="stop-color:#CECFD0"/>
									<stop  offset="0.9976" style="stop-color:#D1D2D3"/>
									<stop  offset="1" style="stop-color:#D1D2D3"/>
								</linearGradient>
								
									<rect x="10" y="106.5" style="clip-path:url(#SVGID_00000075848011977326994270000013677413727593252025_);fill:url(#SVGID_00000121241205887788938820000014682015607569192623_);" width="29.1" height="81.6"/>
							</g>
						</g>
					</g>
				</g>
			</g>
			<g>
				<g>
					<g>
						<g>
							<g>
								<defs>
									<path id="SVGID_00000170982526165538546440000011606565047156388482_" d="M18.7,186.1c0-0.2,0.1-0.5,0.1-0.7
										c0-0.2,0.1-0.5,0.1-0.7c0-0.2,0.1-0.5,0.1-0.7c0.1-0.5,0.1-1,0.2-1.4c0-0.2,0.1-0.5,0.1-0.7c0-0.2,0.1-0.5,0.1-0.7
										c0.1-0.5,0.1-1,0.1-1.4c0.1-1,0.1-1.9,0.1-2.9v-1c0-0.2-0.1-0.6-0.1-1l0,0c-0.1-0.7-0.2-1.4-0.4-2.2
										c-0.1-0.7-0.2-1.4-0.2-2.2s-0.1-1.4-0.2-2.2l-0.2-2.2l-0.2-2.2c-0.1-0.7-0.1-1.4-0.2-2.2c-0.1-1.4-0.4-2.9-0.5-4.2
										c-0.1-0.7-0.1-1.4-0.2-2.2l-0.2-2.2c-0.1-1.4-0.4-2.9-0.5-4.2c-0.4-2.9-0.6-5.6-1-8.5l0,0c-0.1-0.4-0.1-0.6-0.2-1
										c0-0.4-0.1-0.6-0.1-1c-0.1-0.6-0.1-1.2-0.2-1.9c0-0.6-0.1-1.3-0.1-1.9c0-0.6,0-1.3,0-1.9c0-0.7,0.1-1.3,0.1-2
										s0.1-1.3,0.2-2c0.1-0.7,0.2-1.3,0.4-2c0.1-0.7,0.2-1.3,0.5-1.9c0.4-1.3,0.7-2.6,1.3-3.8c0.5-1.3,1.2-2.4,1.8-3.6
										c0.2-0.6,0.7-1.2,1.1-1.7c0.4-0.5,0.7-1.1,1.2-1.7c0.8-1,1.8-2,2.6-3c1.1-0.8,2-1.8,3-2.6c1-0.7,1.9-1.3,2.9-2
										c0,0.2,0,0.4,0,0.6c0,1.7,0,3.4,0.1,5c0.1,1.3,0.2,2.6,0.4,4c0.1,1.3,0.2,2.6,0.5,4c0.1,1.3,0.4,2.6,0.6,4
										c0.1,0.7,0.2,1.3,0.4,1.9c0,0.4,0.1,0.7,0.1,1c0,0.2,0.1,0.7,0.1,1l0,0c0.4,2.5,0.7,5,1.1,7.4c0.1,1.2,0.4,2.5,0.6,3.7
										l0.2,1.9l0.2,1.9c0.1,1.2,0.4,2.5,0.6,3.7l0.2,1.9c0.1,0.6,0.1,1.2,0.2,1.9l0.2,1.9l0.2,1.9l0.2,1.9
										c0.1,0.6,0.1,1.2,0.2,1.9l0,0c0,0.4,0.1,0.7,0.1,1.1c0,0.4,0,0.7,0,1.1c0,1.8-0.1,3.6-0.5,5.4c-0.2,0.8-0.5,1.8-0.7,2.6
										c-0.1,0.5-0.2,0.8-0.5,1.3c-0.1,0.4-0.4,0.8-0.6,1.2c-0.5,0.7-0.8,1.6-1.3,2.3c-0.2,0.4-0.5,0.7-0.7,1.1
										c-0.2,0.4-0.6,0.7-0.8,1c-0.1,0.1-0.2,0.4-0.5,0.5c-0.1,0.1-0.4,0.2-0.5,0.5c-0.4,0.2-0.7,0.6-1,1
										c-0.4,0.4-0.7,0.5-1.1,0.8c-0.4,0.2-0.7,0.5-1.1,0.7l0,0c-0.5,0.2-1,0.6-1.3,0.8c-0.2,0.1-0.5,0.2-0.6,0.5l-0.6,0.5
										c-0.2,0.1-0.5,0.4-0.6,0.5c-0.1,0.1-0.5,0.4-0.6,0.5c-0.2,0.1-0.5,0.4-0.6,0.5c-0.2,0.1-0.5,0.4-0.6,0.5l-0.6,0.5
										c-0.2,0.1-0.4,0.4-0.6,0.5c-0.2,0.1-0.4,0.4-0.6,0.6c-0.2,0.2-0.4,0.4-0.6,0.6c-0.1,0.2-0.4,0.4-0.6,0.6
										C19,185.7,18.8,185.9,18.7,186.1c0,0.1-0.1,0.1-0.1,0.1L18.7,186.1 M30.9,105.9c-1.3,1-2.5,1.8-3.8,2.6
										c-1.1,0.8-2,1.8-3.1,2.8c-1,1-1.8,2-2.8,3.1c-0.4,0.6-0.8,1.1-1.2,1.7c-0.4,0.6-0.8,1.1-1.1,1.7c-0.7,1.2-1.3,2.4-1.8,3.7
										c-0.6,1.2-1,2.6-1.3,3.8c-0.2,0.6-0.4,1.3-0.5,2c-0.1,0.7-0.2,1.3-0.4,2c-0.1,0.7-0.2,1.3-0.2,2l-0.1,2c0,0.6,0,1.3,0,1.9
										s0.1,1.3,0.1,1.9c0.1,0.6,0.1,1.3,0.2,1.9c0,0.4,0.1,0.6,0.1,1c0.1,0.4,0.1,0.6,0.2,1c0.4,2.9,0.6,5.6,1,8.5
										c0.1,1.4,0.4,2.9,0.5,4.2c0.1,0.7,0.1,1.4,0.2,2.2c0.1,0.7,0.1,1.4,0.2,2.2c0.1,1.4,0.4,2.9,0.5,4.2
										c0.1,0.7,0.1,1.4,0.2,2.2s0.1,1.4,0.2,2.2s0.1,1.4,0.2,2.2c0.1,0.7,0.2,1.4,0.2,2.2c0.1,0.7,0.2,1.4,0.2,2.2
										c0.1,0.7,0.2,1.4,0.4,2.2l0,0c0,0.2,0.1,0.6,0.1,0.8c0,0.2,0,0.6,0,0.8c0,1-0.1,1.9-0.1,2.9c0,0.5-0.1,1-0.1,1.4l-0.1,0.7
										c0,0.2-0.1,0.5-0.1,0.7c-0.1,0.5-0.1,1-0.2,1.4c0,0.2-0.1,0.5-0.1,0.7c0,0.2-0.1,0.5-0.1,0.7s-0.1,0.5-0.1,0.7
										c-0.1,0.2-0.1,0.5-0.1,0.7c0,0.2-0.1,0.5-0.1,0.7c-0.1,0.2-0.1,0.5-0.1,0.7l-0.8,3l1.3-2.9c0.1-0.1,0.1-0.2,0.1-0.4
										c0.1-0.2,0.2-0.5,0.4-0.7c0.1-0.2,0.2-0.5,0.5-0.6c0.1-0.2,0.4-0.4,0.5-0.6c0.1-0.2,0.4-0.4,0.6-0.6
										c0.2-0.1,0.4-0.4,0.6-0.6c0.1-0.2,0.4-0.4,0.6-0.5c0.2-0.1,0.4-0.4,0.6-0.5c0.2-0.1,0.4-0.4,0.6-0.5
										c0.2-0.1,0.5-0.4,0.6-0.5c0.2-0.1,0.5-0.4,0.6-0.5l0.6-0.5c0.2-0.1,0.5-0.4,0.6-0.5c0.1-0.1,0.5-0.4,0.6-0.5l0.6-0.5
										c0.5-0.2,0.8-0.6,1.3-0.8l0,0c0.4-0.2,0.7-0.5,1.2-0.8c0.4-0.2,0.7-0.5,1.1-0.8l1.1-1l0.5-0.5c0.1-0.1,0.4-0.4,0.5-0.5
										c0.4-0.4,0.6-0.7,1-1.1c0.2-0.4,0.6-0.7,0.8-1.1c0.6-0.7,1-1.6,1.4-2.4c0.2-0.5,0.4-0.8,0.6-1.3c0.2-0.5,0.4-0.8,0.5-1.3
										c0.4-0.8,0.5-1.8,0.7-2.6c0.4-1.8,0.6-3.7,0.5-5.5c0-0.4,0-0.7,0-1.1s0-0.7-0.1-1.1l0,0c-0.1-0.6-0.1-1.2-0.2-1.9L37,155
										c-0.1-0.6-0.1-1.2-0.2-1.9l-0.2-1.9c-0.1-0.6-0.1-1.2-0.2-1.9c-0.1-0.6-0.1-1.2-0.2-1.9c-0.1-1.2-0.4-2.5-0.6-3.7
										c-0.1-0.6-0.1-1.2-0.2-1.9l-0.2-1.9c-0.1-1.2-0.4-2.5-0.6-3.7c-0.4-2.5-0.7-5-1.1-7.4l0,0c0-0.4-0.1-0.7-0.1-1
										c0-0.2-0.1-0.7-0.1-1c-0.1-0.7-0.2-1.3-0.4-1.9c-0.2-1.3-0.4-2.6-0.6-4c-0.1-1.3-0.4-2.6-0.5-4c-0.1-1.3-0.2-2.6-0.4-4
										c-0.1-1.7-0.1-3.4-0.1-5c0-0.2,0-0.5,0-0.6C30.9,106.7,30.9,106.3,30.9,105.9C31.1,105.9,30.9,105.9,30.9,105.9"/>
								</defs>
								<clipPath id="SVGID_00000169529899652044715160000006319657829732921248_">
									<use xlink:href="#SVGID_00000170982526165538546440000011606565047156388482_"  style="overflow:visible;"/>
								</clipPath>
								<g style="clip-path:url(#SVGID_00000169529899652044715160000006319657829732921248_);">
									<g>
										<g>
											<g>
												<g>
													<g>
														<defs>
															
																<rect id="SVGID_00000183249542224682177210000016154694387265172375_" x="14.5" y="105.9" width="22.9" height="85.2"/>
														</defs>
														<clipPath id="SVGID_00000178883251290132269330000010275161443823245755_">
															<use xlink:href="#SVGID_00000183249542224682177210000016154694387265172375_"  style="overflow:visible;"/>
														</clipPath>
														<g style="clip-path:url(#SVGID_00000178883251290132269330000010275161443823245755_);">
															<g>
																<g>
																	<g>
																		<g>
																			<defs>
																				
																					<rect id="SVGID_00000092445859425821045720000003854484998486131124_" x="14.5" y="105.9" width="22.9" height="85.2"/>
																			</defs>
																			<clipPath id="SVGID_00000080190365961418150570000006098110662364303493_">
																				<use xlink:href="#SVGID_00000092445859425821045720000003854484998486131124_"  style="overflow:visible;"/>
																			</clipPath>
																			<g style="clip-path:url(#SVGID_00000080190365961418150570000006098110662364303493_);">
																			</g>
																		</g>
																	</g>
																</g>
															</g>
														</g>
													</g>
												</g>
											</g>
										</g>
									</g>
								</g>
							</g>
						</g>
					</g>
				</g>
			</g>
		</g>
		<g>
			<g class="st24">
				<path class="st25" d="M199.6,103.4c3.9,0,7.2,1.9,8.6,5.6h-3.6c-1-2-2.7-2.9-4.9-2.9c-3.7,0-6.3,2.6-6.3,6.8
					c0,4.2,2.7,6.8,6.3,6.8c2.2,0,4-0.9,4.9-2.9h3.6c-1.4,3.6-4.7,5.5-8.6,5.5c-5.2,0-9.4-3.9-9.4-9.4
					C190.2,107.3,194.4,103.4,199.6,103.4z"/>
				<path class="st25" d="M223.2,122.3c-5.2,0-9.4-3.9-9.4-9.5c0-5.5,4.2-9.4,9.4-9.4c5.3,0,9.4,3.9,9.4,9.4
					C232.7,118.4,228.5,122.3,223.2,122.3z M223.2,119.7c3.7,0,6.3-2.7,6.3-6.8c0-4.2-2.7-6.8-6.3-6.8c-3.7,0-6.3,2.6-6.3,6.8
					C216.9,117,219.6,119.7,223.2,119.7z"/>
				<path class="st25" d="M241.7,103.6v16.1h6.3v2.4h-9.3v-18.5H241.7z"/>
				<path class="st25" d="M256.6,103.6v16.1h6.3v2.4h-9.3v-18.5H256.6z"/>
				<path class="st25" d="M278.7,106.1h-7.2v5.4h6.4v2.5h-6.4v5.7h7.2v2.5h-10.2v-18.6h10.2V106.1z"/>
				<path class="st25" d="M302.5,109h-3.6c-1-1.9-2.7-2.8-5-2.8c-3.7,0-6.3,2.6-6.3,6.7s2.7,6.7,6.3,6.7c3.4,0,5.5-2,5.9-5.1h-7
					v-2.4H303v2.4c-0.6,4.3-4.2,7.9-9.2,7.9c-5.2,0-9.5-3.9-9.5-9.4s4.2-9.4,9.5-9.4C297.7,103.4,301.1,105.3,302.5,109z"/>
				<path class="st25" d="M319.3,106.1h-7.2v5.4h6.4v2.5h-6.4v5.7h7.2v2.5H309v-18.6h10.2L319.3,106.1L319.3,106.1z"/>
				<path class="st25" d="M354.4,122.3c-5.2,0-9.5-3.9-9.5-9.5c0-5.5,4.2-9.4,9.5-9.4s9.5,3.9,9.5,9.4
					C363.8,118.4,359.7,122.3,354.4,122.3z M354.4,119.7c3.7,0,6.3-2.7,6.3-6.8c0-4.2-2.7-6.8-6.3-6.8c-3.7,0-6.3,2.6-6.3,6.8
					C348.1,117,350.7,119.7,354.4,119.7z"/>
				<path class="st25" d="M369.9,103.6h10.9v2.5h-7.9v5.5h6.1v2.5h-6.1v8.1h-3V103.6z"/>
				<path class="st25" d="M416.8,106.1h-7.2v5.4h6.4v2.5h-6.4v5.7h7.2v2.5h-10.2v-18.6h10.2V106.1z"/>
				<path class="st25" d="M438.7,103.6v18.5h-3l-9.1-13.8v13.8h-3v-18.5h3l9.1,13.8v-13.8H438.7z"/>
				<path class="st25" d="M462.8,109h-3.6c-1-1.9-2.7-2.8-5-2.8c-3.7,0-6.3,2.6-6.3,6.7s2.7,6.7,6.3,6.7c3.4,0,5.5-2,5.9-5.1h-7
					v-2.4h10.2v2.4c-0.6,4.3-4.2,7.9-9.2,7.9c-5.2,0-9.5-3.9-9.5-9.4s4.2-9.4,9.5-9.4C458.1,103.4,461.4,105.3,462.8,109z"/>
				<path class="st25" d="M469.4,103.6h3v18.5h-3V103.6z"/>
				<path class="st25" d="M494.6,103.6v18.5h-3l-9.1-13.8v13.8h-3v-18.5h3l9.1,13.8v-13.8H494.6z"/>
				<path class="st25" d="M511.9,106.1h-7.2v5.4h6.4v2.5h-6.4v5.7h7.2v2.5h-10.2v-18.6h10.2V106.1z"/>
				<path class="st25" d="M528.9,106.1h-7.2v5.4h6.4v2.5h-6.4v5.7h7.2v2.5h-10.2v-18.6h10.2V106.1L528.9,106.1z"/>
				<path class="st25" d="M542.1,103.6c4.4,0,6.5,2.5,6.5,5.5c0,2.2-1.2,4.5-4.3,5.3l4.6,7.7h-3.6l-4.3-7.4h-2.3v7.4h-3v-18.5H542.1
					z M542.1,106.1h-3.4v6.2h3.4c2.4,0,3.4-1.3,3.4-3.1C545.5,107.3,544.4,106.1,542.1,106.1z"/>
				<path class="st25" d="M555.5,103.6h3v18.5h-3V103.6z"/>
				<path class="st25" d="M580.8,103.6v18.5h-3l-9.1-13.8v13.8h-3v-18.5h3l9.1,13.8v-13.8H580.8z"/>
				<path class="st25" d="M604.9,109h-3.7c-1-1.9-2.7-2.8-5-2.8c-3.7,0-6.3,2.6-6.3,6.7s2.7,6.7,6.3,6.7c3.4,0,5.5-2,5.9-5.1h-7
					v-2.4h10.2v2.4c-0.6,4.3-4.2,7.9-9.2,7.9c-5.2,0-9.5-3.9-9.5-9.4s4.2-9.4,9.5-9.4C600.1,103.4,603.5,105.3,604.9,109z"/>
				<path class="st25" d="M642.5,118.4h-7.8l-1.3,3.8h-3.2l6.6-18.5h3.5l6.6,18.5h-3.2L642.5,118.4z M638.7,107.3l-3,8.6h6
					L638.7,107.3z"/>
				<path class="st25" d="M668.2,103.6v18.5h-3l-9.1-13.8v13.8h-3v-18.5h3l9.1,13.8v-13.8C665.1,103.6,668.2,103.6,668.2,103.6z"/>
				<path class="st25" d="M691.1,113c0,5.7-3.9,9.2-9.8,9.2h-6v-18.6h6C687.2,103.6,691.1,107.2,691.1,113z M681.2,119.7
					c4.4,0,6.7-2.5,6.7-6.7s-2.3-6.8-6.7-6.8h-3v13.6L681.2,119.7L681.2,119.7z"/>
				<path class="st25" d="M716.1,103.6H729v2.5h-4.9v16h-3v-16h-4.9L716.1,103.6L716.1,103.6z"/>
				<path class="st25" d="M745.3,106.1h-7.2v5.4h6.4v2.5h-6.4v5.7h7.2v2.5h-10.2v-18.6h10.2V106.1z"/>
				<path class="st25" d="M760.5,103.4c3.9,0,7.2,1.9,8.6,5.6h-3.7c-1-2-2.7-2.9-5-2.9c-3.7,0-6.3,2.6-6.3,6.8
					c0,4.2,2.7,6.8,6.3,6.8c2.2,0,4-0.9,5-2.9h3.7c-1.4,3.6-4.7,5.5-8.6,5.5c-5.2,0-9.5-3.9-9.5-9.4
					C751.1,107.3,755.3,103.4,760.5,103.4z"/>
				<path class="st25" d="M787.4,114h-8.7v8.1h-3v-18.5h3v7.9h8.7v-7.9h3v18.5h-3V114z"/>
				<path class="st25" d="M812.7,103.6v18.5h-3l-9.1-13.8v13.8h-3v-18.5h3l9.1,13.8v-13.8H812.7z"/>
				<path class="st25" d="M828.2,122.3c-5.2,0-9.5-3.9-9.5-9.5c0-5.5,4.2-9.4,9.5-9.4s9.5,3.9,9.5,9.4
					C837.6,118.4,833.5,122.3,828.2,122.3z M828.2,119.7c3.7,0,6.3-2.7,6.3-6.8c0-4.2-2.7-6.8-6.3-6.8s-6.3,2.6-6.3,6.8
					C821.8,117,824.5,119.7,828.2,119.7z"/>
				<path class="st25" d="M846.7,103.6v16.1h6.3v2.4h-9.3v-18.5H846.7z"/>
				<path class="st25" d="M867,122.3c-5.2,0-9.5-3.9-9.5-9.5c0-5.5,4.2-9.4,9.5-9.4s9.5,3.9,9.5,9.4
					C876.4,118.4,872.2,122.3,867,122.3z M867,119.7c3.7,0,6.3-2.7,6.3-6.8c0-4.2-2.7-6.8-6.3-6.8s-6.3,2.6-6.3,6.8
					C860.6,117,863.3,119.7,867,119.7z"/>
				<path class="st25" d="M899.5,109h-3.7c-1-1.9-2.7-2.8-5-2.8c-3.7,0-6.3,2.6-6.3,6.7s2.7,6.7,6.3,6.7c3.4,0,5.5-2,5.9-5.1h-7
					v-2.4H900v2.4c-0.6,4.3-4.2,7.9-9.2,7.9c-5.2,0-9.5-3.9-9.5-9.4s4.2-9.4,9.5-9.4C894.7,103.4,898.1,105.3,899.5,109z"/>
				<path class="st25" d="M904.5,103.6h3.4l4.3,9.1l4.3-9.1h3.4l-6.1,11.8v6.7h-3v-6.7L904.5,103.6z"/>
			</g>
			<g>
				<g>
					<path class="st25" d="M210.7,54.3c6.3,3.7,13,7.4,13,15.7c0,8-5.8,14.7-17.6,14.7c-3.9,0-7.3-0.7-11.8-2.9
						c-0.6-0.3-0.7-0.9-0.8-1.7l-1.3-11.3c-0.2-0.5,0.9-0.6,1-0.2c1,6.9,5.4,14.8,14.9,14.8c5.4,0,10.9-2.6,10.9-10.4
						c0-8.4-6.3-12.1-12.7-15.8C200.1,53.5,194,50,194,41.8c0-9,7.8-13.5,15.6-13.5c2.9,0,6.2,0.6,9.9,2.1c0.9,0.3,1.3,0.9,1.3,1.5
						l0.8,9.2c0,0.5-1,0.5-1,0c-0.4-5-3.7-11.6-12.1-11.6c-7.6,0-10.1,5.4-10.1,10.3C198.3,47.3,204.4,50.6,210.7,54.3z"/>
					<path class="st25" d="M288,83.7h-10c-3,0-11.8-10.8-23.4-28.3c-1.6,0.4-3.5,0.7-5.3,0.7c-1,0-2.6-0.1-3.7-0.2v20.8
						c0,5,1,6,7.7,6c0.4,0,0.4,1,0,1c-2.8,0-6.1-0.2-10.1-0.2c-3.7,0-7.3,0.2-10.1,0.2c-0.3,0-0.3-1,0-1c6.6,0,7.9-1,7.9-6V36.4
						c0-5-1.1-6-7.7-6c-0.4,0-0.4-1,0-1c2.7,0,6.2,0.3,9.9,0.3c2.9,0,7.6-0.5,10.2-0.5c9.3,0,14.2,4.2,14.2,10.9
						c0,5.7-3.6,10.9-8.9,13.7c14.7,21.6,21.8,28.9,29.4,28.9C288.4,82.6,288.4,83.7,288,83.7z M250.8,54.1
						c8.4,0,11.9-3.3,11.9-11.2c0-9.4-4.9-12.7-11.3-12.7c-4.3,0-5.8,0.2-5.8,6.3v17.2C247.2,53.9,249.2,54.1,250.8,54.1z"/>
					<path class="st25" d="M312.5,82.6c0.3,0,0.3,1,0,1c-2.8,0-6.1-0.2-10.2-0.2c-3.8,0-7.3,0.2-10.1,0.2c-0.4,0-0.4-1,0-1
						c6.6,0,7.8-1,7.8-6V36.4c0-5-1.2-6-7.8-6c-0.4,0-0.4-1,0-1c2.8,0,6.2,0.3,10.1,0.3c4.1,0,7.5-0.3,10.2-0.3c0.3,0,0.3,1,0,1
						c-6.6,0-7.7,1.2-7.7,6.2v40C304.8,81.7,305.8,82.6,312.5,82.6z"/>
					<path class="st25" d="M384.3,54.3c6.3,3.7,13,7.4,13,15.7c0,8-5.8,14.7-17.6,14.7c-3.9,0-7.3-0.7-11.8-2.9
						c-0.6-0.3-0.7-0.9-0.8-1.7l-1.3-11.3c-0.2-0.5,0.9-0.6,1-0.2c1,6.9,5.4,14.8,14.9,14.8c5.4,0,10.9-2.6,10.9-10.4
						c0-8.4-6.3-12.1-12.7-15.8c-6.2-3.7-12.3-7.2-12.3-15.4c0-9,7.8-13.5,15.6-13.5c3,0,6.2,0.6,9.9,2.1c0.9,0.3,1.3,0.9,1.3,1.5
						l0.8,9.2c0,0.5-1,0.5-1,0c-0.4-5-3.7-11.6-12.1-11.6c-7.6,0-10.1,5.4-10.1,10.3C371.9,47.3,378,50.6,384.3,54.3z"/>
					<path class="st25" d="M465.5,83.7c-2.7,0-6.2-0.2-10-0.2c-4,0-7.4,0.2-10.1,0.2c-0.4,0-0.4-1,0-1c6.7,0,7.7-1,7.7-6V56.2h-34.6
						v20.4c0,5,1,6,7.7,6c0.3,0,0.3,1,0,1c-2.8,0-6.1-0.2-10.1-0.2c-3.7,0-7.3,0.2-10.1,0.2c-0.3,0-0.3-1,0-1c6.6,0,7.8-1,7.8-6
						V36.4c0-5-1.1-6-7.7-6c-0.3,0-0.3-1,0-1c2.8,0,6.2,0.3,10,0.3c4,0,7.4-0.3,10.1-0.3c0.3,0,0.3,1,0,1c-6.6,0-7.7,1.2-7.7,6.2v18
						h34.6v-18c0-5-1-6.2-7.7-6.2c-0.4,0-0.4-1,0-1c2.7,0,6.1,0.3,10.1,0.3c3.7,0,7.3-0.3,10-0.3c0.4,0,0.4,1,0,1
						c-6.6,0-7.8,1-7.8,6v40.2c0,5,1.2,6,7.8,6C465.8,82.6,465.8,83.7,465.5,83.7z"/>
					<path class="st25" d="M529.9,83.7c-3.2,0-6.8-0.3-9.9-0.3c-3.6,0-5.8,0.3-9,0.3c-0.5,0-0.5-1,0-1c6.5,0,7.9-1.4,5.7-6.2
						l-10.3-22.1h-16.6L482,73c-3,7.1-0.5,9.6,7.4,9.6c0.5,0,0.5,1,0,1c-3.5,0-5.8-0.3-10.2-0.3c-4.1,0-5.9,0.3-9.4,0.3
						c-0.5,0-0.5-1,0-1c4.7,0,7.1-2.1,10.6-10.4l18.1-43.7c0.2-0.3,1-0.3,1,0l20.1,43.2c4,8.8,6.2,10.9,10.2,10.9
						C530.4,82.6,530.4,83.7,529.9,83.7z M505.8,52.6l-8.1-17.2l-7.1,17.2H505.8z"/>
					<path class="st25" d="M591.8,30.4c-5,0-6.8,2.2-6.8,8.1v46.1c0,0.3-0.8,0.3-1,0.2l-39.2-48.3c-0.5-0.6-1-1.2-1.5-1.7v39.8
						c0,5.9,1.7,8,6.6,8c0.3,0,0.3,1,0,1c-2.2,0-4.5-0.2-7.4-0.2c-2.8,0-5.4,0.2-7.6,0.2c-0.3,0-0.3-1,0-1c5,0,6.5-2.1,6.5-8V33
						c-2.3-2-4.3-2.6-6.2-2.6c-0.3,0-0.3-1,0-1c1.9,0,4.2,0.2,5.8,0.2s3.2-0.2,3.9-0.2c1.5,0,1.3,1.2,4,4.5l34.3,42.6v-38
						c0-5.9-1.6-8.1-6.4-8.1c-0.3,0-0.3-1,0-1c2.3,0,4.6,0.3,7.5,0.3c2.7,0,5.5-0.3,7.6-0.3C592.2,29.4,592.2,30.4,591.8,30.4z"/>
					<path class="st25" d="M665.1,83.7c-2.8,0-6.2-0.2-10.1-0.2c-3.6,0-6.6,0.2-9,0.2c-0.3,0-0.3-1,0-1c5.8,0,7-1,6.7-6l-1.5-40.4
						l-20.3,46.8c-0.2,0.4-1.2,0.4-1.5,0l-21.2-46.5c0-0.1-0.1-0.1-0.1-0.2l-0.7,38.2c-0.1,5.9,1.5,8,7.3,8c0.3,0,0.3,1,0,1
						c-2.5,0-5.2-0.2-8.4-0.2c-2.8,0-5.4,0.2-7.6,0.2c-0.3,0-0.3-1,0-1c4.9,0,6.7-2.1,6.8-8l0.9-41.2c-1.8-2.1-4.1-3-7-3
						c-0.3,0-0.3-1,0-1c1.7,0,3.9,0.2,5.2,0.2c1.6,0,3.1-0.2,3.8-0.2c1.6,0,2.2,0.6,4,4.5l19.5,42.2l19.4-44.6
						c0.6-1.3,1.7-2.2,2.6-2.2c0.5,0,1.7,0.2,3.3,0.2c3,0,4.5-0.2,6.6-0.2c0.3,0,0.3,1,0,1c-5.6,0-8.3,1-8.2,5.8l1.7,40.4
						c0.2,5,1.2,6,7.8,6C665.4,82.6,665.4,83.7,665.1,83.7z"/>
					<path class="st25" d="M710.2,30.4c-0.3,0-0.3-1,0-1c2.5,0,5.1,0.3,8.4,0.3c2.7,0,5.5-0.3,7.7-0.3c0.3,0,0.3,1,0,1
						c-4.7,0-6.9,2.5-6.9,8.1v24.8c0,13.7-8.1,21.4-20.2,21.4c-12.9,0-21.2-8.2-21.2-20.7V36.4c0-5-1.1-6-7.7-6c-0.3,0-0.3-1,0-1
						c2.8,0,6.2,0.3,10,0.3c3.9,0,7.4-0.3,10-0.3c0.3,0,0.3,1,0,1c-6.6,0-7.6,1.2-7.6,6.2v24.5c0,13.6,6.7,21.2,18.2,21.2
						c10.6,0,16.8-7.1,16.8-18.8v-25C717.6,32.9,715.3,30.4,710.2,30.4z"/>
					<path class="st25" d="M733.6,57.2c0-17.1,14.1-28.8,33.1-28.8c5.6,0,10.9,1.1,14.3,3.3c1,0.8,0.9,1,1,2l1,9.1
						c0,0.3-1,0.5-1,0.1c-2.2-8.3-9-12.7-18.8-12.7c-15.5,0-24.2,9.1-24.2,23.9c0,17,11.7,29.1,27.5,29.1c8.8,0,12.2-1.6,12.2-10.5
						c0-8.3-0.7-9.3-10.2-9.3c-0.7,0-0.7-1.4-0.1-1.4c7.2,0.5,12.6,0.5,19.1,0.2c0.5,0,0.6,1.2,0,1.2c-4.3-0.1-4.7,1-4.7,10.2
						c0,5.8,0.6,6.2,0.6,7.6c0,0.7-0.2,0.8-1,1c-5.8,1.4-12.3,2.4-18.1,2.4C745,84.7,733.6,72.4,733.6,57.2z"/>
					<path class="st25" d="M854.6,83.7c-2.7,0-6.2-0.2-10-0.2c-4,0-7.4,0.2-10.1,0.2c-0.3,0-0.3-1,0-1c6.7,0,7.7-1,7.7-6V56.2h-34.7
						v20.4c0,5,1,6,7.7,6c0.3,0,0.3,1,0,1c-2.8,0-6.1-0.2-10.1-0.2c-3.7,0-7.3,0.2-10.1,0.2c-0.3,0-0.3-1,0-1c6.6,0,7.8-1,7.8-6
						V36.4c0-5-1.1-6-7.7-6c-0.3,0-0.3-1,0-1c2.8,0,6.2,0.3,10,0.3c4,0,7.4-0.3,10.1-0.3c0.3,0,0.3,1,0,1c-6.6,0-7.7,1.2-7.7,6.2v18
						h34.7v-18c0-5-1-6.2-7.7-6.2c-0.3,0-0.3-1,0-1c2.7,0,6.1,0.3,10.1,0.3c3.7,0,7.3-0.3,10-0.3c0.3,0,0.3,1,0,1
						c-6.6,0-7.8,1-7.8,6v40.2c0,5,1.2,6,7.8,6C854.9,82.6,854.9,83.7,854.6,83.7z"/>
					<path class="st25" d="M919,83.7c-3.2,0-6.8-0.3-9.9-0.3c-3.6,0-5.8,0.3-9,0.3c-0.5,0-0.5-1,0-1c6.5,0,7.9-1.4,5.7-6.2
						l-10.3-22.1H879l-7.8,18.8c-3,7.1-0.5,9.6,7.4,9.6c0.5,0,0.5,1,0,1c-3.5,0-5.8-0.3-10.2-0.3c-4.1,0-5.9,0.3-9.4,0.3
						c-0.5,0-0.5-1,0-1c4.7,0,7.1-2.1,10.6-10.4l18-43.9c0.2-0.3,1-0.3,1,0l20.2,43.2c4,8.8,6.2,10.9,10.2,10.9
						C919.4,82.6,919.4,83.7,919,83.7z M894.9,52.6l-8.1-17.2l-7.1,17.2H894.9z"/>
				</g>
				<g>
					<g>
						<path class="st25" d="M911.2,45.3c-5,0-9-4.1-9-9s4.1-9,9-9s9,4.1,9,9C920.3,41.3,916.2,45.3,911.2,45.3z M911.2,27.9
							c-4.7,0-8.4,3.8-8.4,8.4s3.8,8.4,8.4,8.4s8.4-3.8,8.4-8.4S915.9,27.9,911.2,27.9z"/>
					</g>
					<g>
						<path class="st25" d="M911,31c2.5,0,3.7,1.4,3.7,3.1c0,1.3-0.8,2.7-2.5,3l2.7,4.4h-1.7l-2.5-4.3H909v4.3h-1.4V31H911z
							 M911,32.1h-2v4h2c1.6,0,2.2-0.8,2.2-2C913.3,32.9,912.6,32.1,911,32.1z"/>
					</g>
				</g>
			</g>
			<g>
				<g>
					<path class="st25" d="M224.9,148h-5.7l-1,2.8h-2.3l4.9-13.7h2.6l4.9,13.7h-2.4L224.9,148z M224.3,146.2l-2.2-6.4l-2.2,6.4
						H224.3z"/>
					<path class="st25" d="M242.7,150.8h-2.2l-6.8-10.2v10.2h-2.2v-13.7h2.2l6.8,10.2v-10.2h2.2V150.8z"/>
					<path class="st25" d="M261,148h-5.7l-1,2.8h-2.3l4.9-13.7h2.6l4.9,13.7H262L261,148z M260.4,146.2l-2.2-6.4l-2.2,6.4H260.4z"/>
					<path class="st25" d="M269.7,137.1v8.7c0,1,0.3,1.8,0.8,2.3c0.5,0.5,1.3,0.8,2.3,0.8c1,0,1.8-0.3,2.3-0.8
						c0.5-0.5,0.8-1.3,0.8-2.3v-8.7h2.2v8.7c0,1.1-0.2,2.1-0.7,2.8c-0.5,0.8-1.1,1.4-2,1.7c-0.8,0.4-1.7,0.6-2.7,0.6
						s-1.9-0.2-2.7-0.6c-0.8-0.4-1.4-1-1.9-1.7c-0.5-0.8-0.7-1.7-0.7-2.8v-8.7H269.7z"/>
					<path class="st25" d="M290.9,137.1v1.8h-3.6v11.9H285v-11.9h-3.7v-1.8H290.9z"/>
					<path class="st25" d="M296.9,150c-1.1-0.6-1.9-1.4-2.5-2.5c-0.6-1.1-0.9-2.3-0.9-3.6s0.3-2.5,0.9-3.6c0.6-1.1,1.5-1.9,2.5-2.5
						c1.1-0.6,2.2-0.9,3.5-0.9c1.3,0,2.5,0.3,3.5,0.9c1.1,0.6,1.9,1.4,2.5,2.5c0.6,1.1,0.9,2.3,0.9,3.6s-0.3,2.5-0.9,3.6
						s-1.5,1.9-2.5,2.5c-1.1,0.6-2.3,0.9-3.5,0.9C299.2,150.9,298,150.6,296.9,150z M302.9,148.4c0.7-0.4,1.3-1,1.7-1.8
						c0.4-0.8,0.6-1.7,0.6-2.7s-0.2-1.9-0.6-2.7c-0.4-0.8-1-1.3-1.7-1.8c-0.7-0.4-1.5-0.6-2.4-0.6s-1.7,0.2-2.4,0.6
						c-0.7,0.4-1.3,1-1.7,1.8c-0.4,0.8-0.6,1.7-0.6,2.7s0.2,1.9,0.6,2.7c0.4,0.8,1,1.4,1.7,1.8c0.7,0.4,1.5,0.6,2.4,0.6
						S302.2,148.8,302.9,148.4z"/>
					<path class="st25" d="M321.9,150.8h-2.2l-6.8-10.2v10.2h-2.2v-13.7h2.2l6.8,10.2v-10.2h2.2V150.8z"/>
					<path class="st25" d="M328.6,150c-1.1-0.6-1.9-1.4-2.5-2.5c-0.6-1.1-0.9-2.3-0.9-3.6s0.3-2.5,0.9-3.6c0.6-1.1,1.5-1.9,2.5-2.5
						c1.1-0.6,2.2-0.9,3.5-0.9c1.3,0,2.5,0.3,3.5,0.9c1.1,0.6,1.9,1.4,2.5,2.5c0.6,1.1,0.9,2.3,0.9,3.6s-0.3,2.5-0.9,3.6
						s-1.5,1.9-2.5,2.5c-1.1,0.6-2.3,0.9-3.5,0.9C330.8,150.9,329.7,150.6,328.6,150z M334.5,148.4c0.7-0.4,1.3-1,1.7-1.8
						c0.4-0.8,0.6-1.7,0.6-2.7s-0.2-1.9-0.6-2.7c-0.4-0.8-1-1.3-1.7-1.8c-0.7-0.4-1.5-0.6-2.4-0.6s-1.7,0.2-2.4,0.6
						c-0.7,0.4-1.3,1-1.7,1.8c-0.4,0.8-0.6,1.7-0.6,2.7s0.2,1.9,0.6,2.7c0.4,0.8,1,1.4,1.7,1.8c0.7,0.4,1.5,0.6,2.4,0.6
						S333.8,148.8,334.5,148.4z"/>
					<path class="st25" d="M356.7,137.1v13.7h-2.2v-9.4l-4.2,9.4h-1.6l-4.2-9.4v9.4h-2.2v-13.7h2.4l4.8,10.8l4.8-10.8H356.7z"/>
					<path class="st25" d="M363.4,150c-1.1-0.6-1.9-1.4-2.5-2.5c-0.6-1.1-0.9-2.3-0.9-3.6s0.3-2.5,0.9-3.6c0.6-1.1,1.5-1.9,2.5-2.5
						c1.1-0.6,2.2-0.9,3.5-0.9c1.3,0,2.5,0.3,3.5,0.9c1.1,0.6,1.9,1.4,2.5,2.5c0.6,1.1,0.9,2.3,0.9,3.6s-0.3,2.5-0.9,3.6
						s-1.5,1.9-2.5,2.5c-1.1,0.6-2.3,0.9-3.5,0.9C365.7,150.9,364.5,150.6,363.4,150z M369.4,148.4c0.7-0.4,1.3-1,1.7-1.8
						c0.4-0.8,0.6-1.7,0.6-2.7s-0.2-1.9-0.6-2.7c-0.4-0.8-1-1.3-1.7-1.8c-0.7-0.4-1.5-0.6-2.4-0.6s-1.7,0.2-2.4,0.6
						c-0.7,0.4-1.3,1-1.7,1.8c-0.4,0.8-0.6,1.7-0.6,2.7s0.2,1.9,0.6,2.7c0.4,0.8,1,1.4,1.7,1.8c0.7,0.4,1.5,0.6,2.4,0.6
						S368.7,148.8,369.4,148.4z"/>
					<path class="st25" d="M379.4,137.1v8.7c0,1,0.3,1.8,0.8,2.3c0.5,0.5,1.3,0.8,2.3,0.8c1,0,1.8-0.3,2.3-0.8
						c0.5-0.5,0.8-1.3,0.8-2.3v-8.7h2.2v8.7c0,1.1-0.2,2.1-0.7,2.8c-0.5,0.8-1.1,1.4-2,1.7c-0.8,0.4-1.7,0.6-2.7,0.6
						s-1.9-0.2-2.7-0.6c-0.8-0.4-1.4-1-1.9-1.7c-0.5-0.8-0.7-1.7-0.7-2.8v-8.7H379.4z"/>
					<path class="st25" d="M393.8,150.5c-0.7-0.3-1.3-0.8-1.7-1.4s-0.6-1.3-0.6-2.1h2.4c0.1,0.6,0.3,1.1,0.7,1.5
						c0.4,0.4,1,0.6,1.7,0.6c0.8,0,1.4-0.2,1.8-0.6c0.4-0.4,0.7-0.9,0.7-1.4c0-0.5-0.1-0.8-0.4-1.1c-0.3-0.3-0.6-0.5-1-0.7
						c-0.4-0.2-1-0.3-1.7-0.5c-0.9-0.2-1.6-0.5-2.2-0.7s-1-0.6-1.4-1.1c-0.4-0.5-0.6-1.2-0.6-2.1c0-0.8,0.2-1.5,0.6-2.1
						s0.9-1,1.7-1.4c0.7-0.3,1.5-0.5,2.5-0.5c1.3,0,2.4,0.3,3.3,1s1.3,1.6,1.4,2.7h-2.5c0-0.5-0.3-0.9-0.7-1.3
						c-0.4-0.4-1-0.5-1.7-0.5c-0.6,0-1.2,0.2-1.6,0.5c-0.4,0.3-0.6,0.8-0.6,1.4c0,0.4,0.1,0.8,0.4,1c0.3,0.3,0.6,0.5,1,0.6
						c0.4,0.2,0.9,0.3,1.6,0.5c0.9,0.2,1.6,0.5,2.2,0.8s1.1,0.6,1.5,1.2c0.4,0.5,0.6,1.2,0.6,2.1c0,0.7-0.2,1.4-0.6,2
						c-0.4,0.6-0.9,1.1-1.6,1.5c-0.7,0.4-1.6,0.6-2.5,0.6C395.3,150.9,394.5,150.8,393.8,150.5z"/>
					<path class="st25" d="M413,137.1v13.7h-2.2v-13.7H413z"/>
					<path class="st25" d="M428.2,150.8H426l-6.8-10.2v10.2h-2.2v-13.7h2.2l6.8,10.2v-10.2h2.2V150.8z"/>
					<path class="st25" d="M434.2,150.5c-0.7-0.3-1.3-0.8-1.7-1.4s-0.6-1.3-0.6-2.1h2.4c0.1,0.6,0.3,1.1,0.7,1.5
						c0.4,0.4,1,0.6,1.7,0.6c0.8,0,1.4-0.2,1.8-0.6c0.4-0.4,0.7-0.9,0.7-1.4c0-0.5-0.1-0.8-0.4-1.1c-0.3-0.3-0.6-0.5-1-0.7
						c-0.4-0.2-1-0.3-1.7-0.5c-0.9-0.2-1.6-0.5-2.2-0.7s-1-0.6-1.4-1.1c-0.4-0.5-0.6-1.2-0.6-2.1c0-0.8,0.2-1.5,0.6-2.1
						s0.9-1,1.7-1.4c0.7-0.3,1.5-0.5,2.5-0.5c1.3,0,2.4,0.3,3.3,1s1.3,1.6,1.4,2.7h-2.5c0-0.5-0.3-0.9-0.7-1.3
						c-0.4-0.4-1-0.5-1.7-0.5c-0.6,0-1.2,0.2-1.6,0.5c-0.4,0.3-0.6,0.8-0.6,1.4c0,0.4,0.1,0.8,0.4,1c0.3,0.3,0.6,0.5,1,0.6
						c0.4,0.2,0.9,0.3,1.6,0.5c0.9,0.2,1.6,0.5,2.2,0.8s1.1,0.6,1.5,1.2c0.4,0.5,0.6,1.2,0.6,2.1c0,0.7-0.2,1.4-0.6,2
						c-0.4,0.6-0.9,1.1-1.6,1.5c-0.7,0.4-1.6,0.6-2.5,0.6C435.8,150.9,434.9,150.8,434.2,150.5z"/>
					<path class="st25" d="M453.9,137.1v1.8h-3.6v11.9H448v-11.9h-3.7v-1.8H453.9z"/>
					<path class="st25" d="M459.4,137.1v13.7h-2.2v-13.7H459.4z"/>
					<path class="st25" d="M472.2,137.1v1.8h-3.7v11.9h-2.2v-11.9h-3.7v-1.8H472.2z"/>
					<path class="st25" d="M477.7,137.1v8.7c0,1,0.3,1.8,0.8,2.3c0.5,0.5,1.3,0.8,2.3,0.8c1,0,1.8-0.3,2.3-0.8
						c0.5-0.5,0.8-1.3,0.8-2.3v-8.7h2.2v8.7c0,1.1-0.2,2.1-0.7,2.8c-0.5,0.8-1.1,1.4-2,1.7c-0.8,0.4-1.7,0.6-2.7,0.6
						s-1.9-0.2-2.7-0.6c-0.8-0.4-1.5-1-1.9-1.7c-0.5-0.8-0.7-1.7-0.7-2.8v-8.7H477.7z"/>
					<path class="st25" d="M498.9,137.1v1.8h-3.6v11.9H493v-11.9h-3.7v-1.8H498.9z"/>
					<path class="st25" d="M504.4,137.1v13.7h-2.2v-13.7H504.4z"/>
					<path class="st25" d="M511.1,150c-1.1-0.6-1.9-1.4-2.5-2.5c-0.6-1.1-0.9-2.3-0.9-3.6s0.3-2.5,0.9-3.6c0.6-1.1,1.5-1.9,2.5-2.5
						c1.1-0.6,2.2-0.9,3.5-0.9c1.3,0,2.5,0.3,3.5,0.9c1.1,0.6,1.9,1.4,2.5,2.5c0.6,1.1,0.9,2.3,0.9,3.6s-0.3,2.5-0.9,3.6
						s-1.5,1.9-2.5,2.5c-1.1,0.6-2.3,0.9-3.5,0.9C513.4,150.9,512.2,150.6,511.1,150z M517.1,148.4c0.7-0.4,1.3-1,1.7-1.8
						s0.6-1.7,0.6-2.7s-0.2-1.9-0.6-2.7s-1-1.3-1.7-1.8c-0.7-0.4-1.5-0.6-2.4-0.6c-0.9,0-1.7,0.2-2.4,0.6c-0.7,0.4-1.3,1-1.7,1.8
						s-0.6,1.7-0.6,2.7s0.2,1.9,0.6,2.7s1,1.4,1.7,1.8s1.5,0.6,2.4,0.6C515.5,149,516.3,148.8,517.1,148.4z"/>
					<path class="st25" d="M536.1,150.8h-2.2l-6.8-10.2v10.2h-2.2v-13.7h2.2l6.8,10.2v-10.2h2.2V150.8z"/>
					<path class="st25" d="M548.6,148.1l-2.4,5.4h-1.5l1.4-5.4H548.6z"/>
					<path class="st25" d="M566,148h-5.7l-1,2.8h-2.3l4.9-13.7h2.6l4.9,13.7h-2.4L566,148z M565.3,146.2l-2.2-6.4l-2.2,6.4H565.3z"
						/>
					<path class="st25" d="M580.5,137.1v1.8h-5.8v4h4.5v1.8h-4.5v6h-2.2v-13.7H580.5z"/>
					<path class="st25" d="M591.6,137.1v1.8h-5.8v4h4.5v1.8h-4.5v6h-2.2v-13.7H591.6z"/>
					<path class="st25" d="M597,137.1v13.7h-2.2v-13.7H597z"/>
					<path class="st25" d="M603.2,149h4.6v1.8h-6.9v-13.7h2.2V149z"/>
					<path class="st25" d="M612.9,137.1v13.7h-2.2v-13.7H612.9z"/>
					<path class="st25" d="M625.1,148h-5.7l-1,2.8H616l4.9-13.7h2.6l4.9,13.7h-2.4L625.1,148z M624.5,146.2l-2.2-6.4l-2.2,6.4H624.5
						z"/>
					<path class="st25" d="M640.4,137.1v1.8h-3.6v11.9h-2.2v-11.9h-3.7v-1.8H640.4z"/>
					<path class="st25" d="M646,138.9v4h4.7v1.8H646v4.2h5.3v1.8h-7.6v-13.7h7.6v1.8H646z"/>
					<path class="st25" d="M663.3,137.9c1.1,0.6,1.9,1.4,2.5,2.4c0.6,1,0.9,2.3,0.9,3.7s-0.3,2.6-0.9,3.6c-0.6,1-1.4,1.8-2.5,2.4
						c-1.1,0.5-2.4,0.8-3.8,0.8H655v-13.7h4.5C661,137.1,662.2,137.4,663.3,137.9z M663.2,147.7c0.9-0.9,1.3-2.1,1.3-3.7
						c0-1.6-0.4-2.8-1.3-3.7c-0.9-0.9-2.1-1.3-3.7-1.3h-2.2v10h2.2C661.1,149,662.3,148.5,663.2,147.7z"/>
					<path class="st25" d="M685,137.1v1.8h-3.6v11.9h-2.2v-11.9h-3.7v-1.8H685z"/>
					<path class="st25" d="M691,150c-1.1-0.6-1.9-1.4-2.5-2.5c-0.6-1.1-0.9-2.3-0.9-3.6s0.3-2.5,0.9-3.6c0.6-1.1,1.5-1.9,2.5-2.5
						c1.1-0.6,2.2-0.9,3.5-0.9c1.3,0,2.5,0.3,3.5,0.9c1.1,0.6,1.9,1.4,2.5,2.5c0.6,1.1,0.9,2.3,0.9,3.6s-0.3,2.5-0.9,3.6
						s-1.5,1.9-2.5,2.5c-1.1,0.6-2.3,0.9-3.5,0.9C693.2,150.9,692,150.6,691,150z M696.9,148.4c0.7-0.4,1.3-1,1.7-1.8
						s0.6-1.7,0.6-2.7s-0.2-1.9-0.6-2.7s-1-1.3-1.7-1.8c-0.7-0.4-1.5-0.6-2.4-0.6c-0.9,0-1.7,0.2-2.4,0.6c-0.7,0.4-1.3,1-1.7,1.8
						s-0.6,1.7-0.6,2.7s0.2,1.9,0.6,2.7s1,1.4,1.7,1.8s1.5,0.6,2.4,0.6C695.4,149,696.2,148.8,696.9,148.4z"/>
					<path class="st25" d="M719.1,148h-5.7l-1,2.8H710l4.9-13.7h2.6l4.9,13.7H720L719.1,148z M718.4,146.2l-2.2-6.4l-2.2,6.4H718.4z
						"/>
					<path class="st25" d="M736.8,150.8h-2.2l-6.8-10.2v10.2h-2.2v-13.7h2.2l6.8,10.2v-10.2h2.2V150.8z"/>
					<path class="st25" d="M752,150.8h-2.2l-6.8-10.2v10.2h-2.2v-13.7h2.2l6.8,10.2v-10.2h2.2V150.8z"/>
					<path class="st25" d="M764.2,148h-5.7l-1,2.8h-2.3l4.9-13.7h2.6l4.9,13.7h-2.4L764.2,148z M763.6,146.2l-2.2-6.4l-2.2,6.4
						H763.6z"/>
					<path class="st25" d="M779,137.1v8.7c0,1,0.3,1.8,0.8,2.3c0.5,0.5,1.3,0.8,2.3,0.8c1,0,1.8-0.3,2.3-0.8
						c0.5-0.5,0.8-1.3,0.8-2.3v-8.7h2.2v8.7c0,1.1-0.2,2.1-0.7,2.8c-0.5,0.8-1.1,1.4-2,1.7c-0.8,0.4-1.7,0.6-2.7,0.6
						s-1.9-0.2-2.7-0.6c-0.8-0.4-1.5-1-1.9-1.7c-0.5-0.8-0.7-1.7-0.7-2.8v-8.7H779z"/>
					<path class="st25" d="M802.7,150.8h-2.2l-6.8-10.2v10.2h-2.2v-13.7h2.2l6.8,10.2v-10.2h2.2V150.8z"/>
					<path class="st25" d="M808.9,137.1v13.7h-2.2v-13.7H808.9z"/>
					<path class="st25" d="M824.6,137.1l-5.1,13.7h-2.6l-5.2-13.7h2.4l4.1,11.4l4.1-11.4H824.6z"/>
					<path class="st25" d="M829.7,138.9v4h4.7v1.8h-4.7v4.2h5.3v1.8h-7.6v-13.7h7.6v1.8H829.7z"/>
					<path class="st25" d="M845.9,150.8l-3.2-5.5H841v5.5h-2.2v-13.7h4.7c1.1,0,1.9,0.2,2.7,0.6c0.7,0.4,1.3,0.9,1.6,1.5
						c0.4,0.6,0.5,1.3,0.5,2.1c0,0.9-0.3,1.7-0.8,2.4c-0.5,0.7-1.3,1.2-2.4,1.5l3.4,5.7H845.9z M841,143.5h2.5
						c0.8,0,1.5-0.2,1.9-0.6c0.4-0.4,0.6-1,0.6-1.7c0-0.7-0.2-1.3-0.6-1.7c-0.4-0.4-1.1-0.6-1.9-0.6H841V143.5z"/>
					<path class="st25" d="M854.3,150.5c-0.7-0.3-1.3-0.8-1.7-1.4s-0.6-1.3-0.6-2.1h2.4c0.1,0.6,0.3,1.1,0.7,1.5
						c0.4,0.4,1,0.6,1.7,0.6c0.8,0,1.4-0.2,1.8-0.6c0.4-0.4,0.7-0.9,0.7-1.4c0-0.5-0.1-0.8-0.4-1.1c-0.3-0.3-0.6-0.5-1-0.7
						c-0.4-0.2-1-0.3-1.7-0.5c-0.9-0.2-1.6-0.5-2.2-0.7c-0.6-0.2-1-0.6-1.4-1.1c-0.4-0.5-0.6-1.2-0.6-2.1c0-0.8,0.2-1.5,0.6-2.1
						s0.9-1,1.7-1.4s1.5-0.5,2.5-0.5c1.3,0,2.4,0.3,3.3,1s1.3,1.6,1.4,2.7h-2.5c0-0.5-0.3-0.9-0.7-1.3c-0.4-0.4-1-0.5-1.7-0.5
						c-0.6,0-1.2,0.2-1.6,0.5c-0.4,0.3-0.6,0.8-0.6,1.4c0,0.4,0.1,0.8,0.4,1c0.3,0.3,0.6,0.5,1,0.6c0.4,0.2,0.9,0.3,1.6,0.5
						c0.9,0.2,1.6,0.5,2.2,0.8s1.1,0.6,1.5,1.2c0.4,0.5,0.6,1.2,0.6,2.1c0,0.7-0.2,1.4-0.6,2s-0.9,1.1-1.6,1.5
						c-0.7,0.4-1.6,0.6-2.5,0.6C855.8,150.9,855,150.8,854.3,150.5z"/>
					<path class="st25" d="M867.4,137.1v13.7h-2.2v-13.7H867.4z"/>
					<path class="st25" d="M880.2,137.1v1.8h-3.6v11.9h-2.2v-11.9h-3.7v-1.8H880.2z"/>
					<path class="st25" d="M893.6,137.1l-4.5,8.7v5h-2.2v-5l-4.6-8.7h2.5l3.2,6.7l3.2-6.7H893.6z"/>
					<path class="st25" d="M258.2,175.1h-5.7l-1,2.8h-2.3l4.9-13.7h2.6l4.9,13.7h-2.4L258.2,175.1z M257.6,173.2l-2.2-6.4l-2.2,6.4
						H257.6z"/>
					<path class="st25" d="M273.8,170.2c-0.3,0.6-0.9,1.1-1.6,1.5c-0.7,0.4-1.7,0.6-2.8,0.6h-2.5v5.6h-2.2v-13.7h4.7
						c1.1,0,1.9,0.2,2.7,0.5c0.7,0.4,1.3,0.9,1.6,1.5c0.4,0.6,0.5,1.3,0.5,2.1C274.3,168.9,274.1,169.6,273.8,170.2z M271.3,169.9
						c0.4-0.4,0.6-0.9,0.6-1.6c0-1.5-0.8-2.2-2.5-2.2h-2.5v4.5h2.5C270.3,170.5,270.9,170.3,271.3,169.9z"/>
					<path class="st25" d="M286.5,170.2c-0.3,0.6-0.9,1.1-1.6,1.5c-0.7,0.4-1.7,0.6-2.8,0.6h-2.5v5.6h-2.2v-13.7h4.7
						c1.1,0,1.9,0.2,2.7,0.5c0.7,0.4,1.3,0.9,1.6,1.5c0.4,0.6,0.5,1.3,0.5,2.1C287,168.9,286.8,169.6,286.5,170.2z M284.1,169.9
						c0.4-0.4,0.6-0.9,0.6-1.6c0-1.5-0.8-2.2-2.5-2.2h-2.5v4.5h2.5C283,170.5,283.6,170.3,284.1,169.9z"/>
					<path class="st25" d="M297.3,177.9l-3.2-5.5h-1.7v5.5h-2.2v-13.7h4.7c1.1,0,1.9,0.2,2.7,0.6c0.7,0.4,1.3,0.9,1.6,1.5
						c0.4,0.6,0.5,1.3,0.5,2.1c0,0.9-0.3,1.7-0.8,2.4c-0.5,0.7-1.3,1.2-2.4,1.5l3.4,5.7H297.3z M292.4,170.6h2.5
						c0.8,0,1.5-0.2,1.9-0.6c0.4-0.4,0.6-1,0.6-1.7c0-0.7-0.2-1.3-0.6-1.7c-0.4-0.4-1.1-0.6-1.9-0.6h-2.5V170.6z"/>
					<path class="st25" d="M306.3,177.1c-1.1-0.6-1.9-1.4-2.5-2.5c-0.6-1.1-0.9-2.3-0.9-3.6s0.3-2.5,0.9-3.6
						c0.6-1.1,1.5-1.9,2.5-2.5c1.1-0.6,2.2-0.9,3.5-0.9c1.3,0,2.5,0.3,3.5,0.9c1.1,0.6,1.9,1.4,2.5,2.5c0.6,1.1,0.9,2.3,0.9,3.6
						s-0.3,2.5-0.9,3.6s-1.5,1.9-2.5,2.5c-1.1,0.6-2.3,0.9-3.5,0.9C308.6,178,307.4,177.7,306.3,177.1z M312.3,175.4
						c0.7-0.4,1.3-1,1.7-1.8c0.4-0.8,0.6-1.7,0.6-2.7s-0.2-1.9-0.6-2.7c-0.4-0.8-1-1.3-1.7-1.8c-0.7-0.4-1.5-0.6-2.4-0.6
						s-1.7,0.2-2.4,0.6c-0.7,0.4-1.3,1-1.7,1.8c-0.4,0.8-0.6,1.7-0.6,2.7s0.2,1.9,0.6,2.7c0.4,0.8,1,1.4,1.7,1.8
						c0.7,0.4,1.5,0.6,2.4,0.6S311.6,175.8,312.3,175.4z"/>
					<path class="st25" d="M331.9,164.2l-5.1,13.7h-2.6l-5.2-13.7h2.4l4.1,11.4l4.1-11.4H331.9z"/>
					<path class="st25" d="M337,166v4h4.7v1.8H337v4.2h5.3v1.8h-7.6v-13.7h7.6v1.8H337z"/>
					<path class="st25" d="M354.4,165c1.1,0.6,1.9,1.4,2.5,2.4c0.6,1,0.9,2.3,0.9,3.7s-0.3,2.6-0.9,3.6c-0.6,1-1.4,1.8-2.5,2.4
						c-1.1,0.5-2.4,0.8-3.8,0.8H346v-13.7h4.5C352,164.2,353.3,164.4,354.4,165z M354.2,174.7c0.9-0.9,1.3-2.1,1.3-3.7
						c0-1.6-0.4-2.8-1.3-3.7c-0.9-0.9-2.1-1.3-3.7-1.3h-2.2v10h2.2C352.1,176,353.4,175.6,354.2,174.7z"/>
					<path class="st25" d="M376.3,172c0.5,0.6,0.8,1.4,0.8,2.2c0,0.7-0.2,1.3-0.5,1.9c-0.4,0.6-0.9,1-1.6,1.3
						c-0.7,0.3-1.5,0.5-2.4,0.5h-5.5v-13.7h5.2c0.9,0,1.7,0.2,2.4,0.5c0.7,0.3,1.2,0.7,1.5,1.3c0.3,0.5,0.5,1.1,0.5,1.8
						c0,0.8-0.2,1.4-0.6,2c-0.4,0.5-1,0.9-1.7,1.2C375.2,171,375.8,171.3,376.3,172z M369.4,169.9h2.8c0.7,0,1.3-0.2,1.7-0.5
						c0.4-0.3,0.6-0.8,0.6-1.5c0-0.6-0.2-1.1-0.6-1.4c-0.4-0.3-1-0.5-1.7-0.5h-2.8V169.9z M374.2,175.5c0.4-0.4,0.7-0.9,0.7-1.5
						c0-0.7-0.2-1.2-0.7-1.6s-1.1-0.6-1.8-0.6h-3v4.3h3C373.2,176,373.8,175.8,374.2,175.5z"/>
					<path class="st25" d="M390.7,164.2l-4.5,8.7v5h-2.2v-5l-4.6-8.7h2.5l3.2,6.7l3.2-6.7H390.7z"/>
					<path class="st25" d="M407.9,175.1h-5.7l-1,2.8h-2.3l4.9-13.7h2.6l4.9,13.7h-2.4L407.9,175.1z M407.2,173.2l-2.2-6.4l-2.2,6.4
						H407.2z"/>
					<path class="st25" d="M416.6,164.2v13.7h-2.2v-13.7H416.6z"/>
					<path class="st25" d="M420.7,167.4c0.6-1.1,1.5-1.9,2.5-2.5c1.1-0.6,2.2-0.9,3.5-0.9c1.5,0,2.8,0.4,3.9,1.1s2,1.7,2.5,3h-2.7
						c-0.4-0.7-0.8-1.3-1.5-1.6c-0.6-0.4-1.4-0.5-2.2-0.5c-0.9,0-1.7,0.2-2.4,0.6c-0.7,0.4-1.3,1-1.7,1.8c-0.4,0.8-0.6,1.7-0.6,2.7
						s0.2,1.9,0.6,2.7c0.4,0.8,1,1.4,1.7,1.8c0.7,0.4,1.5,0.6,2.4,0.6c0.8,0,1.6-0.2,2.2-0.5c0.6-0.4,1.1-0.9,1.5-1.6h2.7
						c-0.5,1.3-1.3,2.3-2.5,3c-1.1,0.7-2.4,1.1-3.9,1.1c-1.3,0-2.5-0.3-3.5-0.9c-1.1-0.6-1.9-1.4-2.5-2.5c-0.6-1.1-0.9-2.3-0.9-3.6
						S420.1,168.4,420.7,167.4z"/>
					<path class="st25" d="M445.6,164.2v1.8H442v11.9h-2.2V166H436v-1.8H445.6z"/>
					<path class="st25" d="M451.1,166v4h4.7v1.8h-4.7v4.2h5.3v1.8h-7.6v-13.7h7.6v1.8H451.1z"/>
					<path class="st25" d="M462.7,175.2l-2.4,5.4h-1.5l1.4-5.4H462.7z"/>
					<path class="st25" d="M473.9,175.1h-5.7l-1,2.8h-2.3l4.9-13.7h2.6l4.9,13.7h-2.4L473.9,175.1z M473.2,173.2l-2.2-6.4l-2.2,6.4
						H473.2z"/>
					<path class="st25" d="M480.5,167.4c0.6-1.1,1.5-1.9,2.5-2.5c1.1-0.6,2.2-0.9,3.5-0.9c1.5,0,2.8,0.4,3.9,1.1s2,1.7,2.5,3h-2.7
						c-0.4-0.7-0.8-1.3-1.5-1.6c-0.6-0.4-1.4-0.5-2.2-0.5c-0.9,0-1.7,0.2-2.4,0.6c-0.7,0.4-1.3,1-1.7,1.8s-0.6,1.7-0.6,2.7
						s0.2,1.9,0.6,2.7s1,1.4,1.7,1.8s1.5,0.6,2.4,0.6c0.8,0,1.6-0.2,2.2-0.5c0.6-0.4,1.1-0.9,1.5-1.6h2.7c-0.5,1.3-1.3,2.3-2.5,3
						c-1.1,0.7-2.4,1.1-3.9,1.1c-1.3,0-2.5-0.3-3.5-0.9c-1.1-0.6-1.9-1.4-2.5-2.5c-0.6-1.1-0.9-2.3-0.9-3.6S479.9,168.4,480.5,167.4
						z"/>
					<path class="st25" d="M496.8,167.4c0.6-1.1,1.5-1.9,2.5-2.5c1.1-0.6,2.2-0.9,3.5-0.9c1.5,0,2.8,0.4,3.9,1.1s2,1.7,2.5,3h-2.7
						c-0.4-0.7-0.8-1.3-1.5-1.6c-0.6-0.4-1.4-0.5-2.2-0.5c-0.9,0-1.7,0.2-2.4,0.6c-0.7,0.4-1.3,1-1.7,1.8s-0.6,1.7-0.6,2.7
						s0.2,1.9,0.6,2.7s1,1.4,1.7,1.8s1.5,0.6,2.4,0.6c0.8,0,1.6-0.2,2.2-0.5c0.6-0.4,1.1-0.9,1.5-1.6h2.7c-0.5,1.3-1.3,2.3-2.5,3
						c-1.1,0.7-2.4,1.1-3.9,1.1c-1.3,0-2.5-0.3-3.5-0.9c-1.1-0.6-1.9-1.4-2.5-2.5c-0.6-1.1-0.9-2.3-0.9-3.6S496.1,168.4,496.8,167.4
						z"/>
					<path class="st25" d="M519.9,177.9l-3.2-5.5h-1.7v5.5h-2.2v-13.7h4.7c1.1,0,1.9,0.2,2.7,0.6c0.7,0.4,1.3,0.9,1.6,1.5
						c0.4,0.6,0.5,1.3,0.5,2.1c0,0.9-0.3,1.7-0.8,2.4c-0.5,0.7-1.3,1.2-2.4,1.5l3.4,5.7H519.9z M515.1,170.6h2.5
						c0.8,0,1.5-0.2,1.9-0.6c0.4-0.4,0.6-1,0.6-1.7c0-0.7-0.2-1.3-0.6-1.7c-0.4-0.4-1.1-0.6-1.9-0.6h-2.5V170.6z"/>
					<path class="st25" d="M528.5,166v4h4.7v1.8h-4.7v4.2h5.3v1.8h-7.6v-13.7h7.6v1.8H528.5z"/>
					<path class="st25" d="M545.9,165c1.1,0.6,1.9,1.4,2.5,2.4c0.6,1,0.9,2.3,0.9,3.7s-0.3,2.6-0.9,3.6c-0.6,1-1.4,1.8-2.5,2.4
						c-1.1,0.5-2.4,0.8-3.8,0.8h-4.5v-13.7h4.5C543.5,164.2,544.8,164.4,545.9,165z M545.8,174.7c0.9-0.9,1.3-2.1,1.3-3.7
						c0-1.6-0.4-2.8-1.3-3.7c-0.9-0.9-2.1-1.3-3.7-1.3h-2.2v10h2.2C543.7,176,544.9,175.6,545.8,174.7z"/>
					<path class="st25" d="M554.8,164.2v13.7h-2.2v-13.7H554.8z"/>
					<path class="st25" d="M567.6,164.2v1.8H564v11.9h-2.2V166H558v-1.8H567.6z"/>
					<path class="st25" d="M573.1,166v4h4.7v1.8h-4.7v4.2h5.3v1.8h-7.6v-13.7h7.6v1.8H573.1z"/>
					<path class="st25" d="M590.5,165c1.1,0.6,1.9,1.4,2.5,2.4c0.6,1,0.9,2.3,0.9,3.7s-0.3,2.6-0.9,3.6c-0.6,1-1.4,1.8-2.5,2.4
						c-1.1,0.5-2.4,0.8-3.8,0.8h-4.5v-13.7h4.5C588.1,164.2,589.4,164.4,590.5,165z M590.4,174.7c0.9-0.9,1.3-2.1,1.3-3.7
						c0-1.6-0.4-2.8-1.3-3.7c-0.9-0.9-2.1-1.3-3.7-1.3h-2.2v10h2.2C588.3,176,589.5,175.6,590.4,174.7z"/>
					<path class="st25" d="M612.5,172c0.5,0.6,0.8,1.4,0.8,2.2c0,0.7-0.2,1.3-0.5,1.9c-0.4,0.6-0.9,1-1.6,1.3s-1.5,0.5-2.4,0.5h-5.5
						v-13.7h5.2c0.9,0,1.7,0.2,2.4,0.5c0.7,0.3,1.2,0.7,1.5,1.3c0.3,0.5,0.5,1.1,0.5,1.8c0,0.8-0.2,1.4-0.6,2
						c-0.4,0.5-1,0.9-1.7,1.2C611.4,171,612,171.3,612.5,172z M605.5,169.9h2.8c0.7,0,1.3-0.2,1.7-0.5c0.4-0.3,0.6-0.8,0.6-1.5
						c0-0.6-0.2-1.1-0.6-1.4c-0.4-0.3-1-0.5-1.7-0.5h-2.8V169.9z M610.4,175.5c0.4-0.4,0.7-0.9,0.7-1.5c0-0.7-0.2-1.2-0.7-1.6
						c-0.5-0.4-1.1-0.6-1.8-0.6h-3v4.3h3C609.3,176,609.9,175.8,610.4,175.5z"/>
					<path class="st25" d="M626.9,164.2l-4.5,8.7v5h-2.2v-5l-4.6-8.7h2.5l3.2,6.7l3.2-6.7H626.9z"/>
					<path class="st25" d="M647,177.9h-2.2l-6.8-10.2v10.2h-2.2v-13.7h2.2l6.8,10.2v-10.2h2.2V177.9z"/>
					<path class="st25" d="M659.2,175.1h-5.7l-1,2.8h-2.3l4.9-13.7h2.6l4.9,13.7h-2.4L659.2,175.1z M658.6,173.2l-2.2-6.4l-2.2,6.4
						H658.6z"/>
					<path class="st25" d="M673.9,175.1h-5.7l-1,2.8h-2.3l4.9-13.7h2.6l4.9,13.7h-2.4L673.9,175.1z M673.3,173.2l-2.2-6.4l-2.2,6.4
						H673.3z"/>
					<path class="st25" d="M680.6,167.4c0.6-1.1,1.5-1.9,2.5-2.5c1.1-0.6,2.2-0.9,3.5-0.9c1.5,0,2.8,0.4,3.9,1.1s2,1.7,2.5,3h-2.7
						c-0.4-0.7-0.8-1.3-1.5-1.6c-0.6-0.4-1.4-0.5-2.2-0.5c-0.9,0-1.7,0.2-2.4,0.6c-0.7,0.4-1.3,1-1.7,1.8S682,170,682,171
						s0.2,1.9,0.6,2.7s1,1.4,1.7,1.8s1.5,0.6,2.4,0.6c0.8,0,1.6-0.2,2.2-0.5c0.6-0.4,1.1-0.9,1.5-1.6h2.7c-0.5,1.3-1.3,2.3-2.5,3
						c-1.1,0.7-2.4,1.1-3.9,1.1c-1.3,0-2.5-0.3-3.5-0.9c-1.1-0.6-1.9-1.4-2.5-2.5c-0.6-1.1-0.9-2.3-0.9-3.6S680,168.4,680.6,167.4z"
						/>
					<path class="st25" d="M720.6,164.2l-4.1,13.7H714l-2.9-10.4l-3.1,10.4l-2.5,0l-3.9-13.7h2.4l2.8,11.2l3.1-11.2h2.5l2.9,11.1
						l2.9-11.1H720.6z"/>
					<path class="st25" d="M725.7,164.2v13.7h-2.2v-13.7H725.7z"/>
					<path class="st25" d="M738.5,164.2v1.8h-3.6v11.9h-2.2V166h-3.7v-1.8H738.5z"/>
					<path class="st25" d="M752.7,164.2v13.7h-2.2v-6H744v6h-2.2v-13.7h2.2v5.9h6.5v-5.9H752.7z"/>
					<path class="st25" d="M764,162.1l-0.2,4h-1.5l-0.3-4H764z"/>
					<path class="st25" d="M775.4,175.1h-5.7l-1,2.8h-2.3l4.9-13.7h2.6l4.9,13.7h-2.4L775.4,175.1z M774.8,173.2l-2.2-6.4l-2.2,6.4
						H774.8z"/>
					<path class="st25" d="M783.1,162.1l-0.2,4h-1.5l-0.3-4H783.1z"/>
					<path class="st25" d="M802.3,168.1c-0.4-0.7-0.8-1.2-1.5-1.5c-0.6-0.3-1.4-0.5-2.2-0.5c-0.9,0-1.7,0.2-2.4,0.6
						c-0.7,0.4-1.3,1-1.7,1.7c-0.4,0.7-0.6,1.6-0.6,2.6s0.2,1.9,0.6,2.6c0.4,0.8,1,1.3,1.7,1.7c0.7,0.4,1.5,0.6,2.4,0.6
						c1.2,0,2.2-0.3,3-1c0.8-0.7,1.2-1.6,1.4-2.8h-5.1v-1.8h7.6v1.8c-0.1,1.1-0.5,2-1.1,2.9c-0.6,0.9-1.4,1.6-2.4,2.1
						c-1,0.5-2.1,0.8-3.3,0.8c-1.3,0-2.5-0.3-3.5-0.9c-1.1-0.6-1.9-1.4-2.5-2.5c-0.6-1.1-0.9-2.3-0.9-3.6s0.3-2.5,0.9-3.6
						c0.6-1.1,1.5-1.9,2.5-2.5c1.1-0.6,2.2-0.9,3.5-0.9c1.5,0,2.8,0.4,3.9,1.1s2,1.7,2.5,3H802.3z"/>
					<path class="st25" d="M815.7,177.9l-3.2-5.5h-1.7v5.5h-2.2v-13.7h4.7c1.1,0,1.9,0.2,2.7,0.6c0.7,0.4,1.3,0.9,1.6,1.5
						c0.4,0.6,0.5,1.3,0.5,2.1c0,0.9-0.3,1.7-0.8,2.4c-0.5,0.7-1.3,1.2-2.4,1.5l3.4,5.7H815.7z M810.9,170.6h2.5
						c0.8,0,1.5-0.2,1.9-0.6c0.4-0.4,0.6-1,0.6-1.7c0-0.7-0.2-1.3-0.6-1.7c-0.4-0.4-1.1-0.6-1.9-0.6h-2.5V170.6z"/>
					<path class="st25" d="M830.3,175.1h-5.7l-1,2.8h-2.3l4.9-13.7h2.6l4.9,13.7h-2.4L830.3,175.1z M829.7,173.2l-2.2-6.4l-2.2,6.4
						H829.7z"/>
					<path class="st25" d="M845.1,165c1.1,0.6,1.9,1.4,2.5,2.4c0.6,1,0.9,2.3,0.9,3.7s-0.3,2.6-0.9,3.6c-0.6,1-1.4,1.8-2.5,2.4
						c-1.1,0.5-2.4,0.8-3.8,0.8h-4.5v-13.7h4.5C842.7,164.2,844,164.4,845.1,165z M845,174.7c0.9-0.9,1.3-2.1,1.3-3.7
						c0-1.6-0.4-2.8-1.3-3.7c-0.9-0.9-2.1-1.3-3.7-1.3h-2.2v10h2.2C842.9,176,844.1,175.6,845,174.7z"/>
					<path class="st25" d="M854,166v4h4.7v1.8H854v4.2h5.3v1.8h-7.6v-13.7h7.6v1.8H854z"/>
				</g>
			</g>
		</g>
	</g>
</g>
</svg>
